<svg height="512" viewBox="0 0 64 64" width="512" xmlns="http://www.w3.org/2000/svg"><path d="m46 41a5 5 0 1 0 5-5 5.006 5.006 0 0 0 -5 5zm8 0a3 3 0 1 1 -3-3 3 3 0 0 1 3 3z"/><path d="m54.48 55.31c3.04-3.92 7.52-10.37 7.52-14.31a11.021 11.021 0 0 0 -9-10.81v-11.19l3.75.97a1.068 1.068 0 0 0 .25.03 1 1 0 0 0 1-1v-6a1 1 0 0 0 -.75-.97l-27-7a1.057 1.057 0 0 0 -.5 0l-27 7a1 1 0 0 0 -.75.97v6a.985.985 0 0 0 .39.79 1.015 1.015 0 0 0 .86.18l3.75-.97v36a1 1 0 0 0 1 1h37.18c-1.28.56-2.18 1.38-2.18 2.5 0 2.4 4.15 3.5 8 3.5s8-1.1 8-3.5c0-1.73-2.11-2.73-4.52-3.19zm5.52-14.31c0 3.87-5.93 11.77-9 15.46-3.07-3.69-9-11.59-9-15.46a9 9 0 0 1 18 0zm-23-9v-4a4.009 4.009 0 0 1 6.83-2.84 4.045 4.045 0 0 1 1.17 2.84v3.79l-.3.21zm-33-14.29v-3.94l26-6.74 26 6.74v3.94l-25.75-6.68a1.057 1.057 0 0 0 -.5 0zm25 36.29h-5v-14h5zm7 0h-5v-14h5zm2 0v-15a1 1 0 0 0 -1-1h-14a1 1 0 0 0 -1 1v15h-13v-35.52l21-5.45 21 5.45v11.52a11.072 11.072 0 0 0 -4 .76v-2.76a6 6 0 0 0 -12 0v4h-1v2h8.52a10.958 10.958 0 0 0 -2.52 7c0 3.52 3.59 9.06 6.52 13zm13 6c-3.84 0-5.88-1.1-6-1.48.09-.31 1.37-1.1 3.96-1.4.71.88 1.2 1.44 1.29 1.54a1 1 0 0 0 1.5 0c.09-.1.58-.66 1.29-1.54 2.59.3 3.87 1.09 3.96 1.36-.12.42-2.16 1.52-6 1.52z"/><path d="m26 46h2v2h-2z"/><path d="m32 46h2v2h-2z"/><path d="m25 32v-4a6 6 0 0 0 -12 0v4h-1v2h14v-2zm-2 0h-8v-4a4 4 0 0 1 8 0z"/></svg>