<svg xmlns="http://www.w3.org/2000/svg" viewBox="0 0 105.61 20.26"><defs><style>.cls-1{fill-rule:evenodd;}</style></defs><title>Varlık 2</title><g id="katman_2" data-name="katman 2"><g id="katman_1-2" data-name="katman 1"><path class="cls-1" d="M41.67,15.85a25.55,25.55,0,0,1-14.43,4.41A26.07,26.07,0,0,1,9.61,13.53c-.37-.33,0-.78.4-.53a35.5,35.5,0,0,0,17.64,4.68,35.22,35.22,0,0,0,13.46-2.75c.65-.27,1.2.44.56.92Z"/><path class="cls-1" d="M43.29,14c-.5-.64-3.3-.3-4.56-.15-.38.05-.44-.29-.1-.53,2.23-1.57,5.89-1.12,6.32-.59s-.11,4.2-2.21,5.95c-.32.27-.63.13-.49-.23.49-1.18,1.54-3.81,1-4.45Z"/><path class="cls-1" d="M38.82,2.23V.71a.38.38,0,0,1,.39-.39H46a.38.38,0,0,1,.39.38V2a2.16,2.16,0,0,1-.51,1L42.38,8a7.63,7.63,0,0,1,3.9.84.7.7,0,0,1,.36.6v1.63c0,.22-.25.48-.5.35a7.89,7.89,0,0,0-7.22,0c-.24.13-.49-.13-.49-.35V9.55a1.83,1.83,0,0,1,.25-1.05l4.1-5.88H39.21a.4.4,0,0,1-.39-.39Z"/><path class="cls-1" d="M13.9,11.75H11.82a.38.38,0,0,1-.37-.35V.73a.39.39,0,0,1,.4-.38h1.94a.39.39,0,0,1,.38.36V2.1h0a2.86,2.86,0,0,1,5.44,0,3.07,3.07,0,0,1,5.28-.81c.66.9.52,2.2.52,3.35v6.73a.39.39,0,0,1-.4.38H23a.38.38,0,0,1-.37-.38V5.71a13.29,13.29,0,0,0-.06-2,1.08,1.08,0,0,0-1.22-.92,1.38,1.38,0,0,0-1.24.88,6.56,6.56,0,0,0-.19,2v5.66a.39.39,0,0,1-.4.38H17.41a.38.38,0,0,1-.37-.38V5.71c0-1.19.19-2.94-1.28-2.94s-1.44,1.71-1.44,2.94v5.66a.42.42,0,0,1-.42.38Z"/><path class="cls-1" d="M52.34,2.3c-1.53,0-1.63,2.09-1.63,3.39s0,4.09,1.61,4.09S54,7.53,54,6.17a9.92,9.92,0,0,0-.31-2.83,1.3,1.3,0,0,0-1.36-1Zm0-2.18c3.09,0,4.75,2.65,4.75,6S55.23,12,52.32,12,47.64,9.33,47.64,6,49.31.12,52.32.12Z"/><path class="cls-1" d="M61.08,11.75H59a.38.38,0,0,1-.37-.38V.7A.39.39,0,0,1,59,.35H61a.4.4,0,0,1,.37.3V2.28h0A2.83,2.83,0,0,1,64.21.12a2.75,2.75,0,0,1,2.43,1.26,6.81,6.81,0,0,1,.54,3.32v6.71a.39.39,0,0,1-.4.34H64.7a.39.39,0,0,1-.37-.34V5.62c0-1.17.14-2.87-1.3-2.87a1.37,1.37,0,0,0-1.2.85,4.75,4.75,0,0,0-.33,2v5.75a.42.42,0,0,1-.42.38Z"/><path class="cls-1" d="M35.47,11.73a.44.44,0,0,1-.49,0,5,5,0,0,1-1.19-1.39,4.13,4.13,0,0,1-3.43,1.51,3,3,0,0,1-3.11-3.24,3.52,3.52,0,0,1,2.22-3.4,14,14,0,0,1,3.91-.72V4.27a2.68,2.68,0,0,0-.25-1.51A1.4,1.4,0,0,0,32,2.22a1.59,1.59,0,0,0-1.67,1.25.44.44,0,0,1-.36.38l-2-.22a.36.36,0,0,1-.31-.43C28.06.79,30.21,0,32.17,0h.15a4.7,4.7,0,0,1,3.06,1c1,.94.91,2.21.91,3.58V7.87a2.87,2.87,0,0,0,.78,1.93.39.39,0,0,1,0,.55l-1.59,1.38ZM33.38,6.66A4.1,4.1,0,0,1,33,8.87a1.7,1.7,0,0,1-1.44.94c-.8,0-1.26-.61-1.26-1.51,0-1.77,1.59-2.09,3.09-2.09v.45Z"/><path class="cls-1" d="M8.22,11.73a.44.44,0,0,1-.49,0,5,5,0,0,1-1.19-1.39A4.13,4.13,0,0,1,3.11,11.9,3,3,0,0,1,0,8.66a3.52,3.52,0,0,1,2.22-3.4,14,14,0,0,1,3.91-.72V4.27a2.68,2.68,0,0,0-.25-1.51,1.4,1.4,0,0,0-1.17-.54A1.59,1.59,0,0,0,3,3.47a.44.44,0,0,1-.36.38l-2-.22A.36.36,0,0,1,.36,3.2C.82.79,3,0,4.93,0h.15a4.7,4.7,0,0,1,3.06,1c1,.94.91,2.21.91,3.58V7.87A2.87,2.87,0,0,0,9.83,9.8a.39.39,0,0,1,0,.55c-.43.36-1.18,1-1.6,1.38ZM6.12,6.66a4.1,4.1,0,0,1-.39,2.21,1.7,1.7,0,0,1-1.44.94C3.49,9.81,3,9.2,3,8.3,3,6.53,4.62,6.21,6.12,6.21v.45Z"/><path class="cls-1" d="M95.59,15.58V14.8c0-.22.11-.38.34-.36a5,5,0,0,0,1.49,0,1.72,1.72,0,0,0,1.22-1.08c.34-.78.57-1.41.71-1.82L95,.86c-.07-.18-.09-.52.27-.52H96.8a.46.46,0,0,1,.47.36l3.14,8.7,3-8.7a.46.46,0,0,1,.47-.36h1.43c.36,0,.34.34.27.52l-4.29,11.05c-.56,1.47-1.29,3.81-3,4.22A4.37,4.37,0,0,1,95.81,16a.49.49,0,0,1-.22-.43Z"/><path class="cls-1" d="M93.57,11.1a.36.36,0,0,1-.36.36H92.14a.42.42,0,0,1-.42-.36l-.11-.73a6.26,6.26,0,0,1-1.74,1A4.37,4.37,0,0,1,86,11.22a3.12,3.12,0,0,1-1.36-2.7,3.3,3.3,0,0,1,.84-2.3A4.27,4.27,0,0,1,88.68,5a10.41,10.41,0,0,1,2.84.37V3.89c0-1.48-.62-2.13-2.27-2.13a11,11,0,0,0-3.57.61A.33.33,0,0,1,85.34,2V1.18A.51.51,0,0,1,85.7.73,10.73,10.73,0,0,1,89.46,0c1.88,0,4.12.42,4.12,3.32V11.1ZM91.52,9V6.77a11.15,11.15,0,0,0-2.36-.28,2.71,2.71,0,0,0-1.93.62,1.83,1.83,0,0,0-.45,1.25,1.64,1.64,0,0,0,.68,1.46,2.77,2.77,0,0,0,2.21.1A4.9,4.9,0,0,0,91.52,9Z"/><path class="cls-1" d="M77.85,1.79c2.37,0,3,1.86,3,4a4.81,4.81,0,0,1-1,3.45,2.69,2.69,0,0,1-2.11.7,5.11,5.11,0,0,1-2.75-1V2.8a4.9,4.9,0,0,1,2.84-1ZM74.64,16H73.21a.36.36,0,0,1-.36-.36V.72a.36.36,0,0,1,.36-.36H74.3a.42.42,0,0,1,.42.36l.11.78A5.6,5.6,0,0,1,78.43,0C82,0,83.1,2.91,83.1,5.92c0,3.22-1.77,5.82-4.76,5.82A5,5,0,0,1,75,10.47v5.14a.35.35,0,0,1-.36.35Z"/></g></g></svg>