<?xml version="1.0" encoding="utf-8"?>
<!-- Generator: Adobe Illustrator 24.2.3, SVG Export Plug-In . SVG Version: 6.00 Build 0)  -->
<svg version="1.1" id="katman_1" xmlns="http://www.w3.org/2000/svg" xmlns:xlink="http://www.w3.org/1999/xlink" x="0px" y="0px"
	 viewBox="0 0 463.7 67.5" style="enable-background:new 0 0 463.7 67.5;" xml:space="preserve">
<g id="comp_x5F_86-dhl">
	<g>
		<path d="M172.9,66.7h42.2l16-21.7H189L172.9,66.7z M1.9,53.6v4.6h58.8l3.4-4.6H1.9z M126.1,45c-6.3,0-4.3-2.6-3.3-4
			c2-2.7,5.5-7.5,7.5-10.1c2-2.7,2-4.2-2-4.2H91.6L62.1,66.8H134c23.8,0,37-16.2,41.1-21.8H126.1z M354.3,40.1l28.2-38.4h-44.7
			l-28.2,38.4H354.3L354.3,40.1z M70.4,45H1.9v4.6H67L70.4,45z M150.1,25.9c-2,2.7-5.4,7.5-7.4,10.2c-1,1.4-2.9,4,3.3,4h32.8
			c0,0,5.2-7.2,9.7-13.2c6-8.2,0.5-25.2-21-25.2H82.8l-14.7,20h80.1C152.2,21.7,152.2,23.3,150.1,25.9z M1.9,66.7h52.5l3.4-4.6H1.9
			V66.7z M234,66.7h42.2l16-21.7h-42.2C250,45,234,66.7,234,66.7z M393.6,66.8h68.3v-4.6H397L393.6,66.8z M409.6,45l-3.4,4.6h55.6
			V45H409.6L409.6,45z M399.9,58.2h62v-4.6h-58.6L399.9,58.2z M281.9,1.7l-16.2,22h-18.8l16.2-22h-42.2l-28.2,38.4h103.2l28.2-38.4
			H281.9z M306,45c0,0-3.1,4.2-4.6,6.3c-5.3,7.2-0.6,15.5,16.7,15.5h67.8l16-21.8H306L306,45z"/>
	</g>
</g>
<g id="Layer_1">
</g>
</svg>
