<?xml version="1.0" encoding="iso-8859-1"?>
<!-- Generator: Adobe Illustrator 19.0.0, SVG Export Plug-In . SVG Version: 6.00 Build 0)  -->
<svg version="1.1" id="Capa_1" xmlns="http://www.w3.org/2000/svg" xmlns:xlink="http://www.w3.org/1999/xlink" x="0px" y="0px"
	 viewBox="0 0 272.351 272.351" style="enable-background:new 0 0 272.351 272.351;" xml:space="preserve">
<g>
	<g>
		<path d="M266.087,56.176c-9.2-21.6-26-36.8-47.2-40.8c-6.4-1.2-12.8-2-19.2-2c-30,0-54,13.2-64,20c-10.4-6.8-34-20-64-20
			c-6.4,0-12.8,0.8-19.2,2c-21.2,4.4-38,19.2-46.4,40.8c-12.8,32.8-5.2,74,20.8,110.8c46,64.8,103.2,90.4,105.6,91.2
			c1.2,0.4,2.4,0.8,3.6,0.8s2.4-0.4,3.6-0.8c2.4-1.2,59.2-26.8,105.6-91.2C271.287,130.576,279.287,88.976,266.087,56.176z
			 M230.887,156.976c-37.2,52-82.4,77.6-95.2,84c-12.8-6.4-58-32-95.2-84c-22.8-32-30-67.2-19.2-94.8c6.4-16.4,18.8-27.6,34.4-30.4
			c5.2-1.2,10.4-1.6,16-1.6c33.2,0,58.4,20,58.8,20.4c3.2,2.4,7.6,2.4,10.8,0c0.4-0.4,25.2-20.4,58.8-20.4c5.2,0,10.8,0.4,16,1.6
			c15.2,3.2,27.6,14,34.4,30.4C260.887,89.776,253.687,125.376,230.887,156.976z"/>
	</g>
</g>
<g>
</g>
<g>
</g>
<g>
</g>
<g>
</g>
<g>
</g>
<g>
</g>
<g>
</g>
<g>
</g>
<g>
</g>
<g>
</g>
<g>
</g>
<g>
</g>
<g>
</g>
<g>
</g>
<g>
</g>
</svg>
