<?xml version="1.0" encoding="iso-8859-1"?>
<!-- Generator: Adobe Illustrator 19.0.0, SVG Export Plug-In . SVG Version: 6.00 Build 0)  -->
<svg version="1.1" id="Capa_1" xmlns="http://www.w3.org/2000/svg" xmlns:xlink="http://www.w3.org/1999/xlink" x="0px" y="0px"
	 viewBox="0 0 478.792 478.792" style="enable-background:new 0 0 478.792 478.792;" xml:space="preserve">
<g>
	<g>
		<path d="M283.242,283.386h-87.6c-5.5,0-10,4.5-10,10s4.5,10,10,10h87.6c5.5,0,10-4.5,10-10S288.742,283.386,283.242,283.386z"/>
	</g>
</g>
<g>
	<g>
		<path d="M324.942,324.386h-171c-5.5,0-10,4.5-10,10s4.5,10,10,10h171c5.5,0,10-4.5,10-10S330.442,324.386,324.942,324.386z"/>
	</g>
</g>
<g>
	<g>
		<path d="M324.942,366.386h-171c-5.5,0-10,4.5-10,10s4.5,10,10,10h171c5.5,0,10-4.5,10-10S330.442,366.386,324.942,366.386z"/>
	</g>
</g>
<g>
	<g>
		<path d="M386.242,0.686c-3.8-1.5-8.1-0.5-10.9,2.6l-21.3,23.3l-21.3-23.2c-3.7-4.1-10-4.3-14.1-0.6c-0.2,0.2-0.4,0.4-0.6,0.6
			l-21.3,23.2l-21.3-23.3c-3.7-4.1-10.1-4.3-14.1-0.6c-0.2,0.2-0.4,0.4-0.6,0.6l-21.3,23.2l-21.3-23.2c-3.7-4.1-10.1-4.3-14.1-0.6
			c-0.2,0.2-0.4,0.4-0.6,0.6l-21.3,23.2l-21.3-23.2c-3.7-4.1-10.1-4.3-14.1-0.6c-0.2,0.2-0.4,0.4-0.6,0.6l-21.3,23.2l-21.4-23.2
			c-2.7-3-7-4.1-10.8-2.6s-6.3,5.2-6.2,9.3v458.8c-0.1,5.4,4.2,9.9,9.6,10c2.9,0.1,5.6-1.1,7.5-3.2l21.3-23.3l21.3,23.2
			c3.7,4.1,10,4.3,14.1,0.6c0.2-0.2,0.4-0.4,0.6-0.6l21.3-23.2l21.3,23.2c3.7,4.1,10.1,4.3,14.1,0.6c0.2-0.2,0.4-0.4,0.6-0.6
			l21.3-23.2l21.3,23.2c3.7,4.1,10.1,4.3,14.1,0.6c0.2-0.2,0.4-0.4,0.6-0.6l21.3-23.2l21.3,23.2c3.7,4.1,10.1,4.3,14.1,0.6
			c0.2-0.2,0.4-0.4,0.6-0.6l21.3-23.2l21.3,23.2c1.9,2.1,4.6,3.2,7.4,3.2c1.2,0,2.3-0.2,3.4-0.7c3.8-1.5,6.3-5.2,6.2-9.3V9.886
			C392.542,5.886,390.042,2.186,386.242,0.686z M354.142,427.386c-2.8,0-5.5,1.2-7.4,3.3l-21.3,23.3l-21.3-23.2
			c-3.7-4.1-10.1-4.3-14.1-0.6c-0.2,0.2-0.4,0.4-0.6,0.6l-21.3,23.2l-21.3-23.2c-3.7-4.1-10.1-4.3-14.1-0.6
			c-0.2,0.2-0.4,0.4-0.6,0.6l-21.3,23.2l-21.3-23.2c-3.7-4.1-10.1-4.3-14.1-0.6c-0.2,0.2-0.4,0.4-0.6,0.6l-21.4,23.2l-21.3-23.3
			c-1.9-2.1-4.6-3.3-7.4-3.3s-5.4,1.2-7.2,3.3l-11.1,12.4v-407.4l11.1,12.3c1.8,2.1,4.4,3.3,7.2,3.3c2.8,0,5.5-1.2,7.4-3.3
			l21.3-23.3l21.3,23.2c3.7,4.1,10.1,4.3,14.1,0.6c0.2-0.2,0.4-0.4,0.6-0.6l21.3-23.2l21.3,23.2c3.7,4.1,10.1,4.3,14.1,0.6
			c0.2-0.2,0.4-0.4,0.6-0.6l21.3-23.2l21.3,23.2c3.7,4.1,10.1,4.3,14.1,0.6c0.2-0.2,0.4-0.4,0.6-0.6l21.3-23.2l21.3,23.3
			c1.9,2.1,4.6,3.3,7.4,3.3c2.8,0,5.4-1.2,7.2-3.3l11.2-12.4v407.4l-11.1-12.3C359.542,428.586,356.942,427.386,354.142,427.386z"/>
	</g>
</g>
<g>
	<g>
		<path d="M269.142,190.586c-13.6,5.2-29.1,1.9-39.4-8.4c-0.2-0.3-0.3-0.8-0.5-0.8h36.3c5.5,0,10-4.5,10-10s-4.5-10-10-10h-46.1
			c-0.3-2-0.4-4-0.4-6h51.7c5.5,0,10-4.5,10-10s-4.5-10-10-10h-45.4c1.3-2,2.8-3.8,4.5-5.4c10.3-10.3,25.8-13.6,39.4-8.3
			c5.1,2,10.9-0.6,12.9-5.7c2-5.1-0.6-10.9-5.7-12.9c-21-8.1-44.8-3.1-60.7,12.8c-5.5,5.6-9.9,12.3-12.8,19.6h-5.1
			c-5.5,0-10,4.5-10,10s4.5,10,10,10h1.3c0,2,0.1,4,0.3,6h-1.5c-5.7-0.1-10.2,4.4-10.2,9.9s4.5,10,10,10h7.3
			c2.6,5.6,6.2,10.6,10.6,14.9c15.9,15.9,39.7,21,60.7,12.9c5.1-2,7.7-7.8,5.7-12.9
			C280.042,191.186,274.242,188.586,269.142,190.586z"/>
	</g>
</g>
<g>
</g>
<g>
</g>
<g>
</g>
<g>
</g>
<g>
</g>
<g>
</g>
<g>
</g>
<g>
</g>
<g>
</g>
<g>
</g>
<g>
</g>
<g>
</g>
<g>
</g>
<g>
</g>
<g>
</g>
</svg>
