<svg xmlns="http://www.w3.org/2000/svg" viewBox="0 0 78.31 16.44"><title>Varlık 4</title><g id="katman_2" data-name="katman 2"><g id="katman_1-2" data-name="katman 1"><path d="M5.52,10.89a16.21,16.21,0,0,1-2.18.95v4.38H0V0H3.34V8.39A9.59,9.59,0,0,0,6.53,6.24a8.75,8.75,0,0,0,1.9-3A9.12,9.12,0,0,0,9,0h3.31a12.8,12.8,0,0,1-.95,4.7A11.33,11.33,0,0,1,8.25,9.06l5.26,7.16H9.41Z"/><path d="M15.32,0h3.2V16.22h-3.2Z"/><path d="M33.18,5V16.21H30.12V15.12a4.35,4.35,0,0,1-3.31,1.32,5.77,5.77,0,0,1-5-2.9,5.93,5.93,0,0,1,0-5.88,5.77,5.77,0,0,1,5-2.9,4.33,4.33,0,0,1,3.31,1.32V5h3.06Zm-3.93,7.66a2.85,2.85,0,0,0,0-4.1,3.1,3.1,0,0,0-4.24,0,2.85,2.85,0,0,0,0,4.1,3,3,0,0,0,2.12.85A2.91,2.91,0,0,0,29.25,12.66Z"/><path d="M42.7,4.82V8.2A3,3,0,0,0,40.49,9a2.84,2.84,0,0,0-.78,2.14v5.12H36.56V5h3.06V6.27A3.2,3.2,0,0,1,42.7,4.82Z"/><path d="M54.49,5.41a4.44,4.44,0,0,1,1.69,1.8,5.51,5.51,0,0,1,.59,2.55v6.47H53.62V10.34a2.72,2.72,0,0,0-.71-2,2.71,2.71,0,0,0-3.68,0,2.72,2.72,0,0,0-.71,2v5.89H45.37V5h3.06V6.2a4.36,4.36,0,0,1,3.45-1.46A5.11,5.11,0,0,1,54.49,5.41Z"/><path d="M71.25,5V16.21H68.19V15.12a4.35,4.35,0,0,1-3.31,1.32,5.77,5.77,0,0,1-5-2.9,5.93,5.93,0,0,1,0-5.88,5.77,5.77,0,0,1,5-2.9,4.33,4.33,0,0,1,3.31,1.32V5h3.06Zm-3.93,7.66a2.85,2.85,0,0,0,0-4.1,3.1,3.1,0,0,0-4.24,0,2.85,2.85,0,0,0,0,4.1,3,3,0,0,0,2.12.85A2.9,2.9,0,0,0,67.32,12.66Z"/><path d="M74.73,15.78a2,2,0,0,1-.63-1.48,2,2,0,0,1,.63-1.49,2.1,2.1,0,0,1,3.58,1.49,2.06,2.06,0,0,1-.61,1.48,2,2,0,0,1-1.49.63A2.08,2.08,0,0,1,74.73,15.78Z"/></g></g></svg>