<svg xmlns="http://www.w3.org/2000/svg" viewBox="0 0 109.62 15.63"><title>Varlık 7</title><g id="katman_2" data-name="katman 2"><g id="katman_1-2" data-name="katman 1"><path d="M8.61,12.56v2.78H0V.6H3v12Z"/><path d="M21.07,5.15V15.34H18.29v-1a4,4,0,0,1-3,1.2,5.19,5.19,0,0,1-4.57-2.63A5.23,5.23,0,0,1,10,10.25a5.13,5.13,0,0,1,.71-2.67,5.28,5.28,0,0,1,1.91-1.93A5.21,5.21,0,0,1,15.28,5a4,4,0,0,1,3,1.2v-1h2.78Zm-3.57,7a2.58,2.58,0,0,0,0-3.72,2.8,2.8,0,0,0-3.86,0,2.58,2.58,0,0,0,0,3.72,2.8,2.8,0,0,0,3.86,0Z"/><path d="M25.14,15.25A4.59,4.59,0,0,1,23.36,14L25,12.23A3.05,3.05,0,0,0,26,13a2.77,2.77,0,0,0,1.2.27,1.64,1.64,0,0,0,1-.26.83.83,0,0,0,.36-.7.66.66,0,0,0-.38-.62,5.64,5.64,0,0,0-1.22-.39,7.22,7.22,0,0,1-2.35-1,2.37,2.37,0,0,1-1-2.15,3.06,3.06,0,0,1,.46-1.67,3.19,3.19,0,0,1,1.33-1.18,4.94,4.94,0,0,1,4.18.07,3.25,3.25,0,0,1,1.36,1.39L28.79,7.94a1.57,1.57,0,0,0-1.33-.65,1.27,1.27,0,0,0-.82.24.71.71,0,0,0-.29.58.6.6,0,0,0,.41.58,7.39,7.39,0,0,0,1.32.37,4.64,4.64,0,0,1,2.28,1,2.69,2.69,0,0,1,.87,2.11,3,3,0,0,1-1.14,2.48,4.44,4.44,0,0,1-2.9.93A6.57,6.57,0,0,1,25.14,15.25Z"/><path d="M36.94,12.06a2.85,2.85,0,0,0,2,.59v2.69h-.42a5.62,5.62,0,0,1-2.85-.67,4.4,4.4,0,0,1-1.76-1.82,5.55,5.55,0,0,1-.59-2.56V1.87h2.86v1.6a2.27,2.27,0,0,0,.76,1.75,2.83,2.83,0,0,0,1.91.72V8.68a3.49,3.49,0,0,1-2.67-1v2.48A2.38,2.38,0,0,0,36.94,12.06Z"/><path d="M42.64,15.25A4.59,4.59,0,0,1,40.86,14l1.66-1.81a3.05,3.05,0,0,0,1,.76,2.77,2.77,0,0,0,1.2.27,1.64,1.64,0,0,0,1-.26.82.82,0,0,0,.36-.7.66.66,0,0,0-.38-.62,5.64,5.64,0,0,0-1.22-.39,7.22,7.22,0,0,1-2.35-1,2.37,2.37,0,0,1-1-2.15,3.06,3.06,0,0,1,.46-1.67,3.19,3.19,0,0,1,1.33-1.18,4.94,4.94,0,0,1,4.18.07,3.25,3.25,0,0,1,1.36,1.39L46.29,7.94A1.58,1.58,0,0,0,45,7.29a1.27,1.27,0,0,0-.82.24.71.71,0,0,0-.29.58.6.6,0,0,0,.41.58,7.39,7.39,0,0,0,1.32.37,4.64,4.64,0,0,1,2.28,1,2.69,2.69,0,0,1,.87,2.11,3,3,0,0,1-1.14,2.48,4.45,4.45,0,0,1-2.91.93A6.51,6.51,0,0,1,42.64,15.25Z"/><path d="M53,14.89a5.53,5.53,0,0,1-2-2,5.22,5.22,0,0,1,0-5.36,5.53,5.53,0,0,1,2-2,5.38,5.38,0,0,1,2.76-.73,5.9,5.9,0,0,1,2.89.72,4.09,4.09,0,0,1,1.86,2L58,8.86A2.46,2.46,0,0,0,57.07,8a2.66,2.66,0,0,0-1.33-.34,2.49,2.49,0,0,0-1.88.76,2.55,2.55,0,0,0-.75,1.87,2.58,2.58,0,0,0,2.63,2.63,2.61,2.61,0,0,0,1.33-.34,2.54,2.54,0,0,0,.93-.91l2.51,1.28a4.14,4.14,0,0,1-1.86,2,5.93,5.93,0,0,1-2.89.72A5.38,5.38,0,0,1,53,14.89Z"/><path d="M70.84,5.5a4,4,0,0,1,1.58,1.61A4.9,4.9,0,0,1,73,9.47v5.87H70.12V10a2.52,2.52,0,0,0-.63-1.79,2.44,2.44,0,0,0-3.36,0A2.52,2.52,0,0,0,65.5,10v5.35H62.64V.6H65.5V6.11a4,4,0,0,1,3-1.2A4.71,4.71,0,0,1,70.84,5.5Z"/><path d="M81.46,5V8.05a2.79,2.79,0,0,0-2,.68,2.61,2.61,0,0,0-.71,1.95v4.65H75.88V5.14h2.78V6.3A2.92,2.92,0,0,1,81.46,5Z"/><path d="M84.08,3.06a1.73,1.73,0,0,1-.54-1.27A1.69,1.69,0,0,1,84.08.53,1.76,1.76,0,0,1,85.35,0,1.73,1.73,0,0,1,86.6.53a1.69,1.69,0,0,1,.54,1.26,1.75,1.75,0,0,1-.53,1.27,1.69,1.69,0,0,1-1.26.54A1.83,1.83,0,0,1,84.08,3.06Zm-.15,2.09h2.86V15.34H83.93Z"/><path d="M93.44,3.89a2.34,2.34,0,0,0-.76,1.92V6.9a3.49,3.49,0,0,1,2.67-1V8.63a2.75,2.75,0,0,0-1.93.72,2.28,2.28,0,0,0-.75,1.75v4.25H89.81V5.67a5.58,5.58,0,0,1,.59-2.56,4.4,4.4,0,0,1,1.76-1.82A5.62,5.62,0,0,1,95,.62h.42V3.31A2.8,2.8,0,0,0,93.44,3.89Z"/><path d="M101.57,12.06a2.86,2.86,0,0,0,2,.59v2.69h-.42a5.62,5.62,0,0,1-2.85-.67,4.4,4.4,0,0,1-1.76-1.82A5.55,5.55,0,0,1,98,10.29V1.87h2.86v1.6a2.27,2.27,0,0,0,.76,1.75,2.86,2.86,0,0,0,1.92.72V8.68a3.49,3.49,0,0,1-2.67-1v2.48A2.31,2.31,0,0,0,101.57,12.06Z"/><path d="M106.35,14.94a1.9,1.9,0,0,1,0-2.71,1.92,1.92,0,0,1,2.71,2.71,1.9,1.9,0,0,1-2.71,0Z"/></g></g></svg>