<svg xmlns="http://www.w3.org/2000/svg" viewBox="0 0 64.38 38.53"><defs><style>.cls-1{fill:#06326e;}.cls-2{fill:#fff;}</style></defs><title>Varlık 10</title><g id="katman_2" data-name="katman 2"><g id="katman_1-2" data-name="katman 1"><path d="M38.52,19.26A19.26,19.26,0,1,1,19.26,0,19.26,19.26,0,0,1,38.52,19.26Z"/><path d="M45.11,0A19.18,19.18,0,0,0,32.18,5a18.71,18.71,0,0,0-1.94,2h3.89a21.1,21.1,0,0,1,1.47,2H28.77a20.13,20.13,0,0,0-1.11,2h9.05a20.19,20.19,0,0,1,.82,2H26.85a19.12,19.12,0,0,0-.56,2h11.8a19.54,19.54,0,0,1,.43,4.08,19.33,19.33,0,0,1-1,6.12H26.85a18.09,18.09,0,0,0,.82,2h9a20.13,20.13,0,0,1-1.11,2H28.78a21.1,21.1,0,0,0,1.47,2h3.89a18.8,18.8,0,0,1-2,2A19.26,19.26,0,1,0,45.11,0Z"/><path d="M61.81,30a.62.62,0,1,1,.62.62A.62.62,0,0,1,61.81,30Zm.62.47A.47.47,0,1,0,62,30,.47.47,0,0,0,62.43,30.47Zm-.09-.2h-.13v-.55h.23a.22.22,0,0,1,.14,0,.17.17,0,0,1,.07.14.15.15,0,0,1-.1.14l.1.24h-.14l-.08-.22h-.09v.22Zm0-.31h.15a.08.08,0,0,0,0-.12h-.15Z"/><path class="cls-1" d="M14.76,21.37a2.87,2.87,0,0,0-.47,0c-1.18,0-1.78.41-1.78,1.21a.73.73,0,0,0,.75.81C14.11,23.36,14.72,22.55,14.76,21.37Zm1.52,3.54H14.55l0-.82a2.62,2.62,0,0,1-2.19,1,2,2,0,0,1-1.91-2.17c0-1.93,1.35-3.06,3.67-3.06a6.9,6.9,0,0,1,.85.06,2.11,2.11,0,0,0,.08-.52c0-.53-.36-.72-1.34-.72a6.75,6.75,0,0,0-2.21.36l.29-1.79a8.19,8.19,0,0,1,2.5-.42c1.8,0,2.75.81,2.74,2.33a9.94,9.94,0,0,1-.17,1.57C16.72,21.84,16.33,24.31,16.28,24.91Z"/><polygon class="cls-1" points="9.61 24.91 7.52 24.91 8.72 17.4 6.04 24.91 4.62 24.91 4.44 17.44 3.19 24.91 1.23 24.91 2.86 15.14 5.87 15.14 6.05 20.61 7.89 15.14 11.23 15.14 9.61 24.91"/><path class="cls-1" d="M47.7,21.37a2.87,2.87,0,0,0-.47,0c-1.19,0-1.78.41-1.78,1.21a.73.73,0,0,0,.75.81C47.05,23.36,47.66,22.55,47.7,21.37Zm1.52,3.54H47.49l0-.82a2.62,2.62,0,0,1-2.19,1,2,2,0,0,1-1.91-2.17c0-1.93,1.35-3.06,3.67-3.06a6.9,6.9,0,0,1,.85.06,2.11,2.11,0,0,0,.08-.52c0-.53-.36-.72-1.34-.72a6.75,6.75,0,0,0-2.21.36l.29-1.79a8.19,8.19,0,0,1,2.5-.42c1.8,0,2.75.81,2.75,2.33a9.94,9.94,0,0,1-.17,1.57C49.66,21.84,49.27,24.31,49.22,24.91Z"/><path class="cls-1" d="M25.57,24.79a4.78,4.78,0,0,1-1.5.26,1.53,1.53,0,0,1-1.65-1.75,18.28,18.28,0,0,1,.29-2.12c.12-.74.91-5.42.91-5.42H25.7L25.46,17h1.26l-.28,1.91H25.18c-.24,1.51-.59,3.39-.59,3.64,0,.41.22.59.72.59a1.44,1.44,0,0,0,.56-.08Z"/><path class="cls-1" d="M32,24.73a7.05,7.05,0,0,1-2.13.32c-2.33,0-3.54-1.22-3.54-3.54,0-2.72,1.54-4.71,3.64-4.71a2.66,2.66,0,0,1,2.81,2.87,8.59,8.59,0,0,1-.26,1.95H28.33c-.14,1.15.6,1.63,1.81,1.63a4.9,4.9,0,0,0,2.16-.5ZM30.78,20c0-.17.22-1.42-1-1.42-.66,0-1.14.5-1.33,1.42Z"/><path class="cls-1" d="M17.54,19.48a2.33,2.33,0,0,0,1.59,2.22c.85.4,1,.52,1,.88s-.37.72-1.2.72A6,6,0,0,1,17,23s-.27,1.75-.29,1.84a9.62,9.62,0,0,0,2.18.23c2.21,0,3.22-.84,3.22-2.66a2.18,2.18,0,0,0-1.47-2.21c-.88-.4-1-.49-1-.86s.35-.65,1-.65a10.73,10.73,0,0,1,1.5.12l.3-1.84a13.4,13.4,0,0,0-1.84-.15C18.34,16.79,17.53,18,17.54,19.48Z"/><path class="cls-1" d="M42.11,17a4,4,0,0,1,1.87.53l.34-2.12a6.13,6.13,0,0,0-2.3-.83,4.14,4.14,0,0,0-3.41,1.84c-1.21-.4-1.71.41-2.32,1.22l-.54.13a4.33,4.33,0,0,0,.07-.8H33.9c-.26,2.46-.73,5-1.09,7.41l-.1.53H34.8c.35-2.27.54-3.72.66-4.7l.79-.44c.12-.44.49-.59,1.22-.57a8.59,8.59,0,0,0-.15,1.63c0,2.6,1.4,4.22,3.65,4.22a6.55,6.55,0,0,0,1.85-.29l.37-2.23a4.06,4.06,0,0,1-1.78.5c-1.22,0-1.95-.9-1.95-2.38C39.46,18.51,40.55,17,42.11,17Z"/><path class="cls-1" d="M59.82,15.14,59.36,18a2.61,2.61,0,0,0-2-1.3,3.23,3.23,0,0,0-2.64,2,16.44,16.44,0,0,1-1.78-.49h0A10.55,10.55,0,0,0,53,17H51.11c-.26,2.46-.73,4.95-1.09,7.41l-.1.53H52c.28-1.83.5-3.36.66-4.56.72-.65,1.07-1.21,1.79-1.17A6.78,6.78,0,0,0,54,21.75c0,2,1,3.3,2.52,3.3a2.45,2.45,0,0,0,1.93-.88l-.1.74h2l1.59-9.77ZM57.2,23.08c-.71,0-1.07-.53-1.07-1.57,0-1.56.67-2.67,1.62-2.67.72,0,1.11.55,1.11,1.56C58.86,22,58.17,23.08,57.2,23.08Z"/><polygon class="cls-2" points="10.21 24.33 8.12 24.33 9.32 16.82 6.65 24.33 5.22 24.33 5.05 16.87 3.79 24.33 1.83 24.33 3.46 14.56 6.47 14.56 6.55 20.61 8.58 14.56 11.83 14.56 10.21 24.33"/><path class="cls-2" d="M15.36,20.79a2.87,2.87,0,0,0-.47,0c-1.19,0-1.78.41-1.78,1.21a.73.73,0,0,0,.75.81C14.71,22.78,15.33,22,15.36,20.79Zm1.52,3.54H15.15l0-.82a2.62,2.62,0,0,1-2.19,1,2,2,0,0,1-1.91-2.17c0-1.93,1.35-3.06,3.67-3.06a6.9,6.9,0,0,1,.85.06,2.11,2.11,0,0,0,.08-.52c0-.53-.36-.72-1.34-.72a6.75,6.75,0,0,0-2.21.36l.29-1.79a8.19,8.19,0,0,1,2.5-.42c1.8,0,2.75.81,2.74,2.33a9.94,9.94,0,0,1-.17,1.57C17.33,21.26,16.94,23.73,16.88,24.33Z"/><path class="cls-2" d="M44.93,14.83,44.59,17a4,4,0,0,0-1.87-.53c-1.56,0-2.66,1.51-2.66,3.66,0,1.48.74,2.38,1.95,2.38a4.1,4.1,0,0,0,1.78-.5l-.37,2.23a6.55,6.55,0,0,1-1.85.29c-2.25,0-3.65-1.62-3.65-4.22,0-3.49,1.94-5.93,4.71-5.93A7.08,7.08,0,0,1,44.93,14.83Z"/><path class="cls-2" d="M48.3,20.79a2.87,2.87,0,0,0-.47,0c-1.18,0-1.78.41-1.78,1.21a.73.73,0,0,0,.75.81C47.65,22.78,48.26,22,48.3,20.79Zm1.52,3.54H48.09l0-.82a2.62,2.62,0,0,1-2.19,1A2,2,0,0,1,44,22.3c0-1.93,1.35-3.06,3.67-3.06a6.9,6.9,0,0,1,.85.06,2.11,2.11,0,0,0,.08-.52c0-.53-.36-.72-1.34-.72a6.75,6.75,0,0,0-2.21.36l.29-1.79a8.19,8.19,0,0,1,2.5-.42c1.8,0,2.75.81,2.74,2.33a9.94,9.94,0,0,1-.17,1.57C50.26,21.26,49.87,23.73,49.82,24.33Z"/><path class="cls-2" d="M26.17,24.21a4.78,4.78,0,0,1-1.5.26A1.52,1.52,0,0,1,23,22.73a18.28,18.28,0,0,1,.29-2.12c.12-.74.91-5.42.91-5.42H26.3l-.24,1.2h1.07l-.28,1.91H25.78c-.24,1.51-.59,3.39-.59,3.64,0,.41.22.59.72.59a1.44,1.44,0,0,0,.56-.08Z"/><path class="cls-2" d="M32.55,24.15a7.05,7.05,0,0,1-2.13.32c-2.33,0-3.54-1.22-3.54-3.54,0-2.72,1.54-4.72,3.64-4.72a2.66,2.66,0,0,1,2.81,2.88A8.59,8.59,0,0,1,33.07,21H28.93c-.14,1.15.6,1.63,1.81,1.63a4.87,4.87,0,0,0,2.16-.5Zm-1.17-4.71c0-.17.22-1.42-1-1.42-.66,0-1.14.51-1.33,1.42Z"/><path class="cls-2" d="M18.14,18.9a2.32,2.32,0,0,0,1.59,2.22c.85.4,1,.52,1,.88s-.37.72-1.2.72a6,6,0,0,1-1.87-.31s-.27,1.75-.29,1.83a10,10,0,0,0,2.18.24c2.21,0,3.23-.84,3.23-2.66a2.18,2.18,0,0,0-1.47-2.21c-.88-.4-1-.49-1-.86s.35-.65,1-.65a12.5,12.5,0,0,1,1.5.12l.3-1.84a13.47,13.47,0,0,0-1.84-.16C18.94,16.21,18.13,17.43,18.14,18.9Z"/><path class="cls-2" d="M60.89,24.33h-2l.1-.74a2.47,2.47,0,0,1-1.93.88c-1.52,0-2.52-1.31-2.52-3.3,0-2.64,1.56-4.87,3.4-4.87a2.38,2.38,0,0,1,2,1.08l.46-2.82h2.06ZM57.8,22.5c1,0,1.66-1.1,1.66-2.68,0-1-.39-1.56-1.11-1.56-1,0-1.62,1.11-1.62,2.67C56.73,22,57.09,22.5,57.8,22.5Z"/><path class="cls-2" d="M51.7,16.39c-.26,2.46-.73,4.95-1.09,7.41l-.1.53H52.6c.75-4.86.93-5.81,2.1-5.69a7.91,7.91,0,0,1,.79-2.3c-.88-.18-1.36.31-2,1.25a8.3,8.3,0,0,0,.13-1.2Z"/><path class="cls-2" d="M34.49,16.39c-.26,2.46-.73,4.95-1.09,7.41l-.1.53h2.09c.75-4.86.93-5.81,2.1-5.69a8.22,8.22,0,0,1,.79-2.3c-.87-.18-1.36.31-2,1.25a7.07,7.07,0,0,0,.12-1.2Z"/><path class="cls-2" d="M61.81,23.71a.62.62,0,1,1,.62.62A.62.62,0,0,1,61.81,23.71Zm.62.47a.47.47,0,1,0-.47-.47A.46.46,0,0,0,62.43,24.18Zm-.09-.2h-.13v-.55h.23a.22.22,0,0,1,.14,0,.15.15,0,0,1,.07.14.16.16,0,0,1-.09.14l.1.24h-.14l-.08-.22h-.09V24Zm0-.31h.15a.07.07,0,0,0,0-.06.09.09,0,0,0,0-.06h-.15Z"/></g></g></svg>