<?xml version="1.0" encoding="utf-8"?>
<!-- Generator: Adobe Illustrator 24.0.2, SVG Export Plug-In . SVG Version: 6.00 Build 0)  -->
<svg version="1.1" id="katman_1" xmlns="http://www.w3.org/2000/svg" xmlns:xlink="http://www.w3.org/1999/xlink" x="0px" y="0px"
	 viewBox="0 0 464 100" style="enable-background:new 0 0 464 100;" xml:space="preserve">
<style type="text/css">
	.st0{fill:none;stroke:#C8C8C8;stroke-width:0.6483;stroke-miterlimit:10;}
	.st1{fill:#FFB3C7;stroke:#C8C8C8;stroke-width:0.6483;stroke-miterlimit:10;}
	.st2{fill-rule:evenodd;clip-rule:evenodd;fill:#009DE2;}
	.st3{fill-rule:evenodd;clip-rule:evenodd;fill:#113984;}
	.st4{fill-rule:evenodd;clip-rule:evenodd;fill:#172C70;}
	.st5{fill-rule:evenodd;clip-rule:evenodd;fill:#F49800;}
	.st6{fill-rule:evenodd;clip-rule:evenodd;fill:#333E47;}
	.st7{fill:#0023A0;}
	.st8{fill:#FFAB00;}
	.st9{fill:#E40520;}
	.st10{fill:#FAB31E;}
	.st11{fill:#06326E;}
	.st12{fill:#FFFFFF;}
</style>
<path class="st0" d="M84.5,44.5h-79c-2.75,0-5-2.25-5-5v-30c0-2.75,2.25-5,5-5h79c2.75,0,5,2.25,5,5v30
	C89.5,42.25,87.25,44.5,84.5,44.5z"/>
<path class="st1" d="M84.5,95.5h-79c-2.75,0-5-2.25-5-5v-30c0-2.75,2.25-5,5-5h79c2.75,0,5,2.25,5,5v30
	C89.5,93.25,87.25,95.5,84.5,95.5z"/>
<path class="st1" d="M178,95.5H99c-2.75,0-5-2.25-5-5v-30c0-2.75,2.25-5,5-5h79c2.75,0,5,2.25,5,5v30
	C183,93.25,180.75,95.5,178,95.5z"/>
<path class="st0" d="M178,44.5H99c-2.75,0-5-2.25-5-5v-30c0-2.75,2.25-5,5-5h79c2.75,0,5,2.25,5,5v30
	C183,42.25,180.75,44.5,178,44.5z"/>
<path class="st0" d="M271.5,44.5h-79c-2.75,0-5-2.25-5-5v-30c0-2.75,2.25-5,5-5h79c2.75,0,5,2.25,5,5v30
	C276.5,42.25,274.25,44.5,271.5,44.5z"/>
<path class="st1" d="M271.5,95.5h-79c-2.75,0-5-2.25-5-5v-30c0-2.75,2.25-5,5-5h79c2.75,0,5,2.25,5,5v30
	C276.5,93.25,274.25,95.5,271.5,95.5z"/>
<path class="st1" d="M365,95.5h-79c-2.75,0-5-2.25-5-5v-30c0-2.75,2.25-5,5-5h79c2.75,0,5,2.25,5,5v30
	C370,93.25,367.75,95.5,365,95.5z"/>
<path class="st0" d="M365,44.42h-79c-2.75,0-5-2.25-5-5v-30c0-2.75,2.25-5,5-5h79c2.75,0,5,2.25,5,5v30
	C370,42.17,367.75,44.42,365,44.42z"/>
<path class="st0" d="M458.5,44.5h-79c-2.75,0-5-2.25-5-5v-30c0-2.75,2.25-5,5-5h79c2.75,0,5,2.25,5,5v30
	C463.5,42.25,461.25,44.5,458.5,44.5z"/>
<path class="st1" d="M458.5,95.5h-79c-2.75,0-5-2.25-5-5v-30c0-2.75,2.25-5,5-5h79c2.75,0,5,2.25,5,5v30
	C463.5,93.25,461.25,95.5,458.5,95.5z"/>
<g>
	<path d="M24.77,76.38c-0.48,0.25-0.95,0.46-1.41,0.62v2.83H21.2v-10.5h2.16v5.43c0.82-0.35,1.51-0.81,2.06-1.39
		c0.56-0.58,0.96-1.22,1.23-1.91c0.27-0.69,0.4-1.4,0.4-2.12h2.15c0,0.99-0.21,2-0.61,3.04c-0.41,1.04-1.09,1.98-2.04,2.82l3.4,4.63
		h-2.65L24.77,76.38z"/>
	<path d="M31.11,69.33h2.07v10.5h-2.07V69.33z"/>
	<path d="M42.68,72.58v7.26H40.7v-0.71c-0.54,0.57-1.25,0.85-2.15,0.85c-0.69,0-1.32-0.17-1.9-0.5s-1.03-0.79-1.36-1.37
		c-0.34-0.58-0.5-1.21-0.5-1.9c0-0.69,0.17-1.33,0.5-1.91c0.33-0.58,0.79-1.04,1.36-1.37c0.58-0.33,1.21-0.5,1.9-0.5
		c0.89,0,1.6,0.29,2.15,0.85v-0.7H42.68z M40.13,77.53c0.38-0.37,0.56-0.81,0.56-1.33c0-0.52-0.19-0.96-0.56-1.33
		c-0.38-0.36-0.83-0.55-1.37-0.55s-1,0.18-1.37,0.55c-0.38,0.37-0.56,0.81-0.56,1.33c0,0.52,0.19,0.96,0.56,1.33
		s0.83,0.55,1.37,0.55S39.76,77.9,40.13,77.53z"/>
	<path d="M48.84,72.46v2.19c-0.62,0-1.1,0.16-1.43,0.49c-0.34,0.33-0.5,0.79-0.5,1.39v3.32h-2.04v-7.26h1.98v0.82
		C47.25,72.74,47.91,72.42,48.84,72.46z"/>
	<path d="M56.47,72.84c0.47,0.29,0.84,0.67,1.09,1.16c0.26,0.49,0.38,1.04,0.38,1.65v4.19h-2.04v-3.81c0-0.55-0.15-0.98-0.46-1.29
		c-0.31-0.31-0.7-0.46-1.19-0.46c-0.49,0-0.89,0.16-1.19,0.46c-0.31,0.31-0.46,0.74-0.46,1.29v3.81h-2.04v-7.26h1.98v0.78
		c0.55-0.63,1.29-0.94,2.23-0.94C55.43,72.41,55.99,72.55,56.47,72.84z"/>
	<path d="M67.32,72.58v7.26h-1.98v-0.71c-0.54,0.57-1.25,0.85-2.15,0.85c-0.69,0-1.32-0.17-1.9-0.5s-1.03-0.79-1.36-1.37
		c-0.34-0.58-0.5-1.21-0.5-1.9c0-0.69,0.17-1.33,0.5-1.91c0.33-0.58,0.79-1.04,1.36-1.37c0.58-0.33,1.21-0.5,1.9-0.5
		c0.89,0,1.6,0.29,2.15,0.85v-0.7H67.32z M64.78,77.53c0.38-0.37,0.56-0.81,0.56-1.33c0-0.52-0.19-0.96-0.56-1.33
		c-0.38-0.36-0.83-0.55-1.37-0.55s-1,0.18-1.37,0.55c-0.38,0.37-0.56,0.81-0.56,1.33c0,0.52,0.19,0.96,0.56,1.33
		s0.83,0.55,1.37,0.55S64.4,77.9,64.78,77.53z"/>
	<path d="M69.57,79.55c-0.27-0.27-0.4-0.59-0.4-0.96c0-0.38,0.13-0.7,0.4-0.97c0.27-0.26,0.59-0.4,0.96-0.4
		c0.38,0,0.7,0.13,0.97,0.4c0.26,0.27,0.4,0.59,0.4,0.97c0,0.37-0.13,0.69-0.4,0.96c-0.27,0.27-0.59,0.41-0.97,0.41
		C70.16,79.96,69.84,79.82,69.57,79.55z"/>
</g>
<g>
	<path d="M107.81,79.83l-1.9-3.65c-0.49,0.18-0.86,0.36-1.12,0.55c-0.25,0.19-0.43,0.41-0.52,0.67c-0.1,0.27-0.14,0.62-0.14,1.06
		v1.37h-2.16v-10.5h4.01c1.18,0,2.1,0.29,2.75,0.85c0.65,0.57,0.98,1.37,0.98,2.4c0,0.66-0.15,1.22-0.44,1.7
		c-0.3,0.47-0.75,0.86-1.37,1.17l2.31,4.38H107.81z M105.68,74.18l0.45-0.15c0.5-0.17,0.86-0.37,1.09-0.6
		c0.23-0.23,0.34-0.52,0.34-0.87c0-0.41-0.14-0.72-0.42-0.93c-0.28-0.21-0.69-0.32-1.21-0.32h-1.8v3.58
		C104.43,74.67,104.95,74.43,105.68,74.18z"/>
	<path d="M118.27,76.65c-0.97,0.01-1.9,0.07-2.79,0.17c-0.89,0.11-1.66,0.25-2.31,0.43c0.17,0.3,0.4,0.53,0.7,0.7
		c0.29,0.17,0.64,0.25,1.03,0.25c0.36,0,0.71-0.07,1.04-0.21c0.33-0.14,0.63-0.34,0.89-0.6l1.06,1.4c-0.37,0.4-0.81,0.71-1.33,0.92
		s-1.08,0.32-1.67,0.32c-0.74,0-1.41-0.17-2.01-0.5c-0.6-0.33-1.07-0.79-1.41-1.38c-0.34-0.58-0.51-1.24-0.51-1.96
		c0-0.71,0.17-1.35,0.5-1.93s0.79-1.04,1.37-1.37c0.58-0.33,1.22-0.5,1.94-0.5c0.69,0,1.3,0.16,1.84,0.47
		c0.53,0.31,0.95,0.76,1.25,1.33s0.45,1.23,0.45,1.96C118.3,76.33,118.29,76.5,118.27,76.65z M113.54,74.64
		c-0.31,0.28-0.5,0.67-0.58,1.15c1.02-0.29,2.11-0.46,3.27-0.51c-0.1-0.33-0.28-0.59-0.55-0.78c-0.27-0.19-0.6-0.29-0.98-0.29
		C114.24,74.21,113.85,74.35,113.54,74.64z"/>
	<path d="M121.3,79.51c-0.6-0.35-1.08-0.81-1.42-1.4c-0.35-0.58-0.53-1.22-0.53-1.91c0-0.69,0.18-1.33,0.53-1.91
		c0.35-0.58,0.82-1.05,1.42-1.39c0.6-0.35,1.25-0.52,1.96-0.52c0.75,0,1.44,0.17,2.06,0.51s1.07,0.81,1.33,1.41l-1.79,0.92
		c-0.16-0.27-0.38-0.49-0.66-0.65c-0.28-0.16-0.6-0.24-0.95-0.24c-0.54,0-0.99,0.18-1.34,0.54c-0.35,0.36-0.53,0.8-0.53,1.33
		s0.18,0.97,0.53,1.33c0.35,0.36,0.8,0.54,1.34,0.54c0.35,0,0.67-0.08,0.95-0.24c0.28-0.16,0.5-0.38,0.66-0.65l1.79,0.92
		c-0.26,0.6-0.7,1.07-1.33,1.41s-1.31,0.51-2.06,0.51C122.55,80.03,121.9,79.86,121.3,79.51z"/>
	<path d="M134.01,72.82c0.48,0.28,0.86,0.66,1.13,1.15c0.26,0.49,0.4,1.05,0.4,1.68v4.19h-2.04v-3.81c0-0.53-0.15-0.95-0.45-1.27
		c-0.3-0.32-0.7-0.48-1.2-0.48c-0.5,0-0.9,0.16-1.2,0.48s-0.45,0.75-0.45,1.27v3.81h-2.04v-10.5h2.04v3.93
		c0.54-0.57,1.25-0.85,2.15-0.85C132.97,72.41,133.53,72.55,134.01,72.82z"/>
	<path d="M143.51,72.84c0.47,0.29,0.84,0.67,1.09,1.16c0.26,0.49,0.38,1.04,0.38,1.65v4.19h-2.04v-3.81c0-0.55-0.15-0.98-0.46-1.29
		c-0.31-0.31-0.7-0.46-1.19-0.46c-0.49,0-0.89,0.16-1.19,0.46c-0.31,0.31-0.46,0.74-0.46,1.29v3.81h-2.04v-7.26h1.98v0.78
		c0.55-0.63,1.29-0.94,2.23-0.94C142.47,72.41,143.03,72.55,143.51,72.84z"/>
	<path d="M154.09,72.58v7.26h-1.98v-0.72c-0.51,0.59-1.22,0.89-2.12,0.89c-0.61,0-1.15-0.13-1.63-0.4
		c-0.48-0.27-0.85-0.63-1.11-1.11c-0.27-0.47-0.4-1.03-0.4-1.66v-4.26h2.04v3.88c0,0.51,0.14,0.92,0.43,1.22
		c0.29,0.3,0.67,0.46,1.15,0.46s0.86-0.15,1.15-0.46c0.29-0.31,0.43-0.71,0.43-1.22v-3.88H154.09z"/>
	<path d="M162.18,72.84c0.47,0.29,0.84,0.67,1.09,1.16c0.26,0.49,0.38,1.04,0.38,1.65v4.19h-2.04v-3.81c0-0.55-0.15-0.98-0.46-1.29
		c-0.31-0.31-0.7-0.46-1.19-0.46c-0.49,0-0.89,0.16-1.19,0.46c-0.31,0.31-0.46,0.74-0.46,1.29v3.81h-2.04v-7.26h1.98v0.78
		c0.55-0.63,1.29-0.94,2.23-0.94C161.14,72.41,161.71,72.55,162.18,72.84z"/>
	<path d="M173.17,73.46c-0.18,0.46-0.45,0.89-0.79,1.3c0.26,0.64,0.39,1.41,0.39,2.29c0,0.93-0.15,1.81-0.45,2.64
		c-0.3,0.83-0.81,1.52-1.52,2.06c-0.71,0.54-1.64,0.82-2.79,0.82c-0.54,0-0.99-0.05-1.35-0.15v-1.89c0.37,0.1,0.79,0.15,1.27,0.15
		c0.67,0,1.23-0.13,1.69-0.38c0.46-0.26,0.77-0.69,0.95-1.31c-0.21,0.2-0.47,0.35-0.79,0.45c-0.31,0.1-0.66,0.15-1.03,0.15
		c-0.68,0-1.29-0.16-1.85-0.46c-0.55-0.31-0.98-0.74-1.3-1.28s-0.47-1.13-0.47-1.79c0-0.67,0.17-1.28,0.5-1.84
		c0.33-0.56,0.79-1,1.37-1.32c0.58-0.33,1.22-0.49,1.94-0.49c0.85,0,1.58,0.23,2.2,0.69c0.2-0.33,0.3-0.74,0.3-1.23h2
		C173.44,72.47,173.35,73,173.17,73.46z M170.15,77.28c0.33-0.33,0.5-0.75,0.5-1.24s-0.17-0.9-0.5-1.24
		c-0.33-0.33-0.75-0.5-1.26-0.5c-0.51,0-0.93,0.17-1.26,0.5c-0.33,0.34-0.5,0.75-0.5,1.24s0.17,0.9,0.5,1.24s0.75,0.5,1.26,0.5
		C169.4,77.78,169.82,77.61,170.15,77.28z"/>
	<path d="M175.18,79.55c-0.27-0.27-0.4-0.59-0.4-0.96c0-0.38,0.13-0.7,0.4-0.97c0.27-0.26,0.59-0.4,0.96-0.4
		c0.38,0,0.7,0.13,0.97,0.4c0.26,0.27,0.4,0.59,0.4,0.97c0,0.37-0.13,0.69-0.4,0.96c-0.27,0.27-0.59,0.41-0.97,0.41
		C175.77,79.96,175.45,79.82,175.18,79.55z"/>
</g>
<g>
	<path d="M200.94,79.83l-1.9-3.65c-0.49,0.18-0.86,0.36-1.12,0.55c-0.25,0.19-0.43,0.41-0.52,0.67c-0.1,0.27-0.14,0.62-0.14,1.06
		v1.37h-2.16v-10.5h4.01c1.18,0,2.1,0.29,2.75,0.85c0.65,0.57,0.98,1.37,0.98,2.4c0,0.66-0.15,1.22-0.44,1.7
		c-0.3,0.47-0.75,0.86-1.37,1.17l2.31,4.38H200.94z M198.81,74.18l0.45-0.15c0.5-0.17,0.86-0.37,1.09-0.6
		c0.23-0.23,0.34-0.52,0.34-0.87c0-0.41-0.14-0.72-0.42-0.93c-0.28-0.21-0.69-0.32-1.21-0.32h-1.8v3.58
		C197.56,74.67,198.08,74.43,198.81,74.18z"/>
	<path d="M211.98,72.58v7.26H210v-0.71c-0.54,0.57-1.25,0.85-2.15,0.85c-0.69,0-1.32-0.17-1.9-0.5s-1.03-0.79-1.36-1.37
		c-0.34-0.58-0.5-1.21-0.5-1.9c0-0.69,0.17-1.33,0.5-1.91c0.33-0.58,0.79-1.04,1.36-1.37c0.58-0.33,1.21-0.5,1.9-0.5
		c0.89,0,1.6,0.29,2.15,0.85v-0.7H211.98z M209.44,77.53c0.38-0.37,0.56-0.81,0.56-1.33c0-0.52-0.19-0.96-0.56-1.33
		c-0.38-0.36-0.83-0.55-1.37-0.55s-1,0.18-1.37,0.55c-0.38,0.37-0.56,0.81-0.56,1.33c0,0.52,0.19,0.96,0.56,1.33
		s0.83,0.55,1.37,0.55S209.07,77.9,209.44,77.53z"/>
	<path d="M216.54,77.5c0.36,0.3,0.83,0.44,1.42,0.42v1.92h-0.3c-0.8,0-1.48-0.16-2.03-0.48c-0.56-0.32-0.97-0.75-1.25-1.3
		c-0.28-0.54-0.42-1.15-0.42-1.82v-6H216v1.14c0,0.5,0.18,0.92,0.54,1.25c0.36,0.33,0.81,0.5,1.36,0.51v1.95
		c-0.82,0-1.46-0.24-1.9-0.72v1.77C216,76.74,216.18,77.19,216.54,77.5z"/>
	<path d="M226.5,76.65c-0.97,0.01-1.9,0.07-2.79,0.17c-0.89,0.11-1.66,0.25-2.31,0.43c0.17,0.3,0.4,0.53,0.7,0.7
		c0.29,0.17,0.64,0.25,1.03,0.25c0.36,0,0.71-0.07,1.04-0.21c0.33-0.14,0.63-0.34,0.89-0.6l1.06,1.4c-0.37,0.4-0.81,0.71-1.33,0.92
		s-1.08,0.32-1.67,0.32c-0.74,0-1.41-0.17-2.01-0.5c-0.6-0.33-1.07-0.79-1.41-1.38c-0.34-0.58-0.51-1.24-0.51-1.96
		c0-0.71,0.17-1.35,0.5-1.93s0.79-1.04,1.37-1.37c0.58-0.33,1.22-0.5,1.94-0.5c0.69,0,1.3,0.16,1.84,0.47
		c0.53,0.31,0.95,0.76,1.25,1.33s0.45,1.23,0.45,1.96C226.53,76.33,226.52,76.5,226.5,76.65z M221.78,74.64
		c-0.31,0.28-0.5,0.67-0.58,1.15c1.02-0.29,2.11-0.46,3.27-0.51c-0.1-0.33-0.28-0.59-0.55-0.78c-0.27-0.19-0.6-0.29-0.98-0.29
		C222.47,74.21,222.09,74.35,221.78,74.64z"/>
	<path d="M234.07,72.84c0.47,0.29,0.84,0.67,1.09,1.16c0.26,0.49,0.38,1.04,0.38,1.65v4.19h-2.04v-3.81c0-0.55-0.15-0.98-0.46-1.29
		c-0.31-0.31-0.7-0.46-1.19-0.46c-0.49,0-0.89,0.16-1.19,0.46c-0.31,0.31-0.46,0.74-0.46,1.29v3.81h-2.04v-7.26h1.98v0.78
		c0.55-0.63,1.29-0.94,2.23-0.94C233.03,72.41,233.6,72.55,234.07,72.84z"/>
	<path d="M240.57,76.88l-0.92,0.92v2.04h-2.04v-10.5h2.04v6.12l2.78-2.88h2.5l-2.97,3l3.17,4.26h-2.38L240.57,76.88z"/>
	<path d="M253.37,72.58v7.26h-1.98v-0.71c-0.54,0.57-1.25,0.85-2.15,0.85c-0.69,0-1.32-0.17-1.9-0.5s-1.03-0.79-1.36-1.37
		c-0.34-0.58-0.5-1.21-0.5-1.9c0-0.69,0.17-1.33,0.5-1.91c0.33-0.58,0.79-1.04,1.36-1.37c0.58-0.33,1.21-0.5,1.9-0.5
		c0.89,0,1.61,0.29,2.15,0.85v-0.7H253.37z M250.83,77.53c0.38-0.37,0.56-0.81,0.56-1.33c0-0.52-0.19-0.96-0.56-1.33
		c-0.38-0.36-0.83-0.55-1.37-0.55s-1,0.18-1.37,0.55c-0.38,0.37-0.56,0.81-0.56,1.33c0,0.52,0.19,0.96,0.56,1.33
		s0.83,0.55,1.37,0.55S250.45,77.9,250.83,77.53z"/>
	<path d="M262.59,72.58v7.26h-1.98v-0.72C260.1,79.71,259.4,80,258.5,80c-0.61,0-1.15-0.13-1.63-0.4c-0.47-0.27-0.84-0.63-1.11-1.11
		c-0.27-0.47-0.4-1.03-0.4-1.66v-4.26h2.04v3.88c0,0.51,0.14,0.92,0.43,1.22c0.29,0.3,0.67,0.46,1.15,0.46
		c0.48,0,0.86-0.15,1.15-0.46c0.29-0.31,0.43-0.71,0.43-1.22v-3.88H262.59z"/>
	<path d="M267.3,71.67c-0.36,0.3-0.54,0.75-0.54,1.37v0.78c0.45-0.48,1.08-0.72,1.91-0.72v1.95c-0.56,0.01-1.02,0.18-1.37,0.51
		c-0.35,0.33-0.53,0.75-0.53,1.25v3.03h-2.04v-6.9c0-0.67,0.14-1.28,0.42-1.82s0.7-0.98,1.25-1.3c0.55-0.32,1.23-0.48,2.03-0.48h0.3
		v1.92C268.14,71.23,267.66,71.38,267.3,71.67z"/>
	<path d="M269.88,79.55c-0.27-0.27-0.41-0.59-0.41-0.96c0-0.38,0.13-0.7,0.41-0.97c0.27-0.26,0.59-0.4,0.96-0.4
		c0.38,0,0.7,0.13,0.97,0.4c0.26,0.27,0.4,0.59,0.4,0.97c0,0.37-0.13,0.69-0.4,0.96c-0.27,0.27-0.59,0.41-0.97,0.41
		C270.47,79.96,270.15,79.82,269.88,79.55z"/>
</g>
<g>
	<path d="M292.12,77.85v1.98h-6.13v-10.5h2.16v8.52H292.12z"/>
	<path d="M301,72.58v7.26h-1.98v-0.71c-0.54,0.57-1.25,0.85-2.15,0.85c-0.69,0-1.32-0.17-1.9-0.5s-1.03-0.79-1.36-1.37
		c-0.34-0.58-0.5-1.21-0.5-1.9c0-0.69,0.17-1.33,0.5-1.91c0.33-0.58,0.79-1.04,1.36-1.37c0.58-0.33,1.21-0.5,1.9-0.5
		c0.89,0,1.61,0.29,2.15,0.85v-0.7H301z M298.46,77.53c0.38-0.37,0.56-0.81,0.56-1.33c0-0.52-0.19-0.96-0.56-1.33
		c-0.38-0.36-0.83-0.55-1.37-0.55s-1,0.18-1.37,0.55c-0.38,0.37-0.56,0.81-0.56,1.33c0,0.52,0.19,0.96,0.56,1.33
		s0.83,0.55,1.37,0.55S298.09,77.9,298.46,77.53z"/>
	<path d="M303.91,79.77c-0.47-0.17-0.9-0.46-1.27-0.86l1.19-1.29c0.2,0.23,0.43,0.41,0.71,0.54c0.27,0.13,0.55,0.2,0.85,0.2
		c0.29,0,0.52-0.06,0.69-0.19c0.17-0.13,0.25-0.29,0.25-0.5c0-0.2-0.09-0.35-0.27-0.44c-0.18-0.09-0.47-0.19-0.87-0.28
		c-0.64-0.15-1.2-0.38-1.67-0.69c-0.48-0.31-0.71-0.82-0.71-1.53c0-0.44,0.11-0.84,0.33-1.19s0.54-0.63,0.95-0.84
		s0.89-0.31,1.44-0.31c0.59,0,1.1,0.12,1.54,0.36c0.43,0.24,0.76,0.57,0.97,0.99l-1.51,0.83c-0.23-0.31-0.54-0.46-0.95-0.46
		c-0.25,0-0.44,0.06-0.58,0.17c-0.14,0.11-0.21,0.25-0.21,0.41c0,0.19,0.1,0.33,0.29,0.41s0.51,0.17,0.94,0.26
		c0.67,0.13,1.21,0.38,1.63,0.75s0.62,0.87,0.62,1.5c0,0.74-0.27,1.33-0.81,1.77c-0.54,0.44-1.23,0.66-2.07,0.66
		C304.87,80.03,304.38,79.94,303.91,79.77z"/>
	<path d="M312.31,77.5c0.36,0.3,0.83,0.44,1.42,0.42v1.92h-0.3c-0.8,0-1.48-0.16-2.03-0.48c-0.55-0.32-0.97-0.75-1.25-1.3
		c-0.28-0.54-0.42-1.15-0.42-1.82v-6h2.04v1.14c0,0.5,0.18,0.92,0.54,1.25c0.36,0.33,0.81,0.5,1.36,0.51v1.95
		c-0.82,0-1.46-0.24-1.9-0.72v1.77C311.77,76.74,311.95,77.19,312.31,77.5z"/>
	<path d="M316.37,79.77c-0.48-0.17-0.9-0.46-1.27-0.86l1.18-1.29c0.2,0.23,0.44,0.41,0.71,0.54c0.27,0.13,0.55,0.2,0.86,0.2
		c0.29,0,0.52-0.06,0.69-0.19s0.25-0.29,0.25-0.5c0-0.2-0.09-0.35-0.27-0.44c-0.18-0.09-0.47-0.19-0.87-0.28
		c-0.64-0.15-1.2-0.38-1.67-0.69c-0.47-0.31-0.71-0.82-0.71-1.53c0-0.44,0.11-0.84,0.33-1.19c0.22-0.35,0.53-0.63,0.94-0.84
		s0.89-0.31,1.44-0.31c0.59,0,1.1,0.12,1.54,0.36c0.44,0.24,0.76,0.57,0.97,0.99l-1.51,0.83c-0.23-0.31-0.55-0.46-0.95-0.46
		c-0.25,0-0.45,0.06-0.58,0.17c-0.14,0.11-0.21,0.25-0.21,0.41c0,0.19,0.1,0.33,0.29,0.41c0.2,0.08,0.51,0.17,0.94,0.26
		c0.67,0.13,1.21,0.38,1.63,0.75s0.62,0.87,0.62,1.5c0,0.74-0.27,1.33-0.81,1.77c-0.54,0.44-1.23,0.66-2.07,0.66
		C317.33,80.03,316.85,79.94,316.37,79.77z"/>
	<path d="M323.76,79.51c-0.6-0.35-1.08-0.81-1.42-1.4s-0.53-1.22-0.53-1.91c0-0.69,0.18-1.33,0.53-1.91s0.83-1.05,1.42-1.39
		c0.6-0.35,1.25-0.52,1.96-0.52c0.75,0,1.44,0.17,2.06,0.51s1.07,0.81,1.33,1.41l-1.79,0.92c-0.16-0.27-0.38-0.49-0.66-0.65
		c-0.28-0.16-0.59-0.24-0.95-0.24c-0.54,0-0.99,0.18-1.34,0.54c-0.36,0.36-0.53,0.8-0.53,1.33s0.18,0.97,0.53,1.33
		c0.35,0.36,0.8,0.54,1.34,0.54c0.35,0,0.67-0.08,0.95-0.24s0.5-0.38,0.66-0.65l1.79,0.92c-0.26,0.6-0.7,1.07-1.33,1.41
		s-1.31,0.51-2.06,0.51C325.01,80.03,324.36,79.86,323.76,79.51z"/>
	<path d="M336.47,72.82c0.48,0.28,0.86,0.66,1.13,1.15c0.26,0.49,0.4,1.05,0.4,1.68v4.19h-2.04v-3.81c0-0.53-0.15-0.95-0.45-1.27
		s-0.7-0.48-1.2-0.48s-0.9,0.16-1.2,0.48s-0.45,0.75-0.45,1.27v3.81h-2.04v-10.5h2.04v3.93c0.54-0.57,1.25-0.85,2.15-0.85
		C335.43,72.41,335.99,72.55,336.47,72.82z"/>
	<path d="M344.04,72.46v2.19c-0.62,0-1.1,0.16-1.43,0.49c-0.34,0.33-0.5,0.79-0.5,1.39v3.32h-2.04v-7.26h1.98v0.82
		C342.44,72.74,343.11,72.42,344.04,72.46z"/>
	<path d="M345.9,71.08c-0.25-0.25-0.38-0.56-0.38-0.91s0.13-0.65,0.38-0.9c0.26-0.25,0.56-0.38,0.91-0.38
		c0.34,0,0.64,0.13,0.89,0.38s0.38,0.55,0.38,0.9s-0.13,0.65-0.38,0.91s-0.55,0.38-0.9,0.38C346.46,71.46,346.16,71.34,345.9,71.08z
		 M345.79,72.58h2.04v7.26h-2.04V72.58z"/>
	<path d="M352.57,71.67c-0.36,0.3-0.54,0.75-0.54,1.37v0.78c0.45-0.48,1.08-0.72,1.91-0.72v1.95c-0.56,0.01-1.02,0.18-1.37,0.51
		c-0.35,0.33-0.53,0.75-0.53,1.25v3.03h-2.04v-6.9c0-0.67,0.14-1.28,0.42-1.82s0.7-0.98,1.25-1.3c0.55-0.32,1.23-0.48,2.03-0.48h0.3
		v1.92C353.41,71.23,352.93,71.38,352.57,71.67z"/>
	<path d="M358.36,77.5c0.36,0.3,0.83,0.44,1.42,0.42v1.92h-0.3c-0.8,0-1.48-0.16-2.03-0.48c-0.56-0.32-0.97-0.75-1.25-1.3
		s-0.42-1.15-0.42-1.82v-6h2.04v1.14c0,0.5,0.18,0.92,0.54,1.25s0.81,0.5,1.37,0.51v1.95c-0.82,0-1.46-0.24-1.91-0.72v1.77
		C357.82,76.74,358,77.19,358.36,77.5z"/>
	<path d="M361.77,79.55c-0.27-0.27-0.4-0.59-0.4-0.96c0-0.38,0.13-0.7,0.4-0.97c0.27-0.26,0.59-0.4,0.96-0.4
		c0.38,0,0.7,0.13,0.97,0.4c0.26,0.27,0.4,0.59,0.4,0.97c0,0.37-0.13,0.69-0.4,0.96c-0.26,0.27-0.59,0.41-0.97,0.41
		C362.36,79.96,362.04,79.82,361.77,79.55z"/>
</g>
<g>
	<path d="M396.02,79.58c-0.6-0.3-1.08-0.71-1.46-1.23l1.41-1.42c0.25,0.32,0.54,0.59,0.88,0.8s0.72,0.32,1.14,0.32
		c0.43,0,0.78-0.12,1.04-0.36c0.26-0.24,0.4-0.56,0.4-0.96c0-0.28-0.07-0.5-0.21-0.67s-0.33-0.29-0.55-0.39
		c-0.23-0.09-0.57-0.21-1.02-0.34c-1.88-0.55-2.82-1.54-2.82-2.99c0-0.57,0.14-1.1,0.41-1.58c0.28-0.49,0.67-0.87,1.17-1.16
		s1.09-0.43,1.75-0.43c0.67,0,1.27,0.15,1.81,0.46c0.54,0.3,0.93,0.74,1.19,1.31l-1.7,1.06c-0.35-0.58-0.81-0.87-1.37-0.87
		c-0.35,0-0.63,0.11-0.84,0.32s-0.32,0.47-0.32,0.78c0,0.34,0.13,0.59,0.38,0.75s0.69,0.33,1.3,0.51c0.92,0.27,1.64,0.65,2.16,1.13
		c0.52,0.48,0.78,1.16,0.78,2.02c0,0.66-0.16,1.25-0.47,1.76c-0.31,0.51-0.75,0.91-1.29,1.19s-1.16,0.43-1.84,0.43
		C397.26,80.03,396.62,79.88,396.02,79.58z"/>
	<path d="M404.74,79.51c-0.6-0.35-1.08-0.81-1.42-1.4s-0.53-1.22-0.53-1.91c0-0.69,0.18-1.33,0.53-1.91s0.83-1.05,1.42-1.39
		c0.6-0.35,1.25-0.52,1.96-0.52s1.37,0.17,1.97,0.52c0.6,0.34,1.07,0.81,1.42,1.39c0.35,0.58,0.52,1.22,0.52,1.91
		c0,0.69-0.17,1.33-0.52,1.91c-0.35,0.58-0.83,1.05-1.42,1.4c-0.6,0.34-1.26,0.52-1.97,0.52S405.34,79.86,404.74,79.51z
		 M408.04,77.56c0.36-0.37,0.54-0.82,0.54-1.36s-0.18-0.99-0.54-1.36c-0.36-0.37-0.8-0.55-1.33-0.55c-0.53,0-0.97,0.18-1.33,0.55
		c-0.36,0.36-0.54,0.82-0.54,1.36s0.18,0.99,0.54,1.36c0.36,0.37,0.81,0.55,1.33,0.55C407.24,78.11,407.68,77.93,408.04,77.56z"/>
	<path d="M414.75,71.67c-0.36,0.3-0.54,0.75-0.54,1.37v0.78c0.45-0.48,1.08-0.72,1.9-0.72v1.95c-0.56,0.01-1.02,0.18-1.37,0.51
		c-0.36,0.33-0.53,0.75-0.53,1.25v3.03h-2.04v-6.9c0-0.67,0.14-1.28,0.42-1.82c0.28-0.54,0.7-0.98,1.25-1.3
		c0.56-0.32,1.23-0.48,2.03-0.48h0.3v1.92C415.58,71.23,415.11,71.38,414.75,71.67z"/>
	<path d="M419.16,79.51c-0.6-0.35-1.08-0.81-1.42-1.4s-0.53-1.22-0.53-1.91c0-0.69,0.18-1.33,0.53-1.91s0.83-1.05,1.42-1.39
		c0.6-0.35,1.25-0.52,1.96-0.52s1.37,0.17,1.97,0.52c0.6,0.34,1.07,0.81,1.42,1.39c0.35,0.58,0.52,1.22,0.52,1.91
		c0,0.69-0.17,1.33-0.52,1.91c-0.35,0.58-0.83,1.05-1.42,1.4c-0.6,0.34-1.26,0.52-1.97,0.52S419.76,79.86,419.16,79.51z
		 M422.46,77.56c0.36-0.37,0.54-0.82,0.54-1.36s-0.18-0.99-0.54-1.36c-0.36-0.37-0.8-0.55-1.33-0.55c-0.53,0-0.97,0.18-1.33,0.55
		c-0.36,0.36-0.54,0.82-0.54,1.36s0.18,0.99,0.54,1.36c0.36,0.37,0.81,0.55,1.33,0.55C421.65,78.11,422.1,77.93,422.46,77.56z"/>
	<path d="M430.62,72.46v2.19c-0.62,0-1.1,0.16-1.43,0.49c-0.33,0.33-0.5,0.79-0.5,1.39v3.32h-2.04v-7.26h1.98v0.82
		C429.02,72.74,429.69,72.42,430.62,72.46z"/>
	<path d="M434.86,77.5c0.36,0.3,0.83,0.44,1.42,0.42v1.92h-0.3c-0.8,0-1.48-0.16-2.03-0.48c-0.56-0.32-0.97-0.75-1.25-1.3
		s-0.42-1.15-0.42-1.82v-6h2.04v1.14c0,0.5,0.18,0.92,0.54,1.25s0.81,0.5,1.37,0.51v1.95c-0.82,0-1.46-0.24-1.91-0.72v1.77
		C434.32,76.74,434.5,77.19,434.86,77.5z"/>
	<path d="M438.27,79.55c-0.27-0.27-0.4-0.59-0.4-0.96c0-0.38,0.13-0.7,0.4-0.97c0.27-0.26,0.59-0.4,0.96-0.4
		c0.38,0,0.7,0.13,0.97,0.4c0.26,0.27,0.4,0.59,0.4,0.97c0,0.37-0.13,0.69-0.4,0.96c-0.26,0.27-0.59,0.41-0.97,0.41
		C438.86,79.96,438.54,79.82,438.27,79.55z"/>
</g>
<g>
	<path class="st2" d="M13.13,19.32h5.18c2.78,0,3.83,1.41,3.66,3.48c-0.27,3.41-2.33,5.3-5.07,5.3h-1.38
		c-0.38,0-0.63,0.25-0.73,0.92l-0.59,3.91c-0.04,0.25-0.17,0.4-0.37,0.42h-3.25c-0.31,0-0.41-0.23-0.33-0.74l1.98-12.55
		C12.31,19.56,12.58,19.32,13.13,19.32z"/>
	<path class="st3" d="M35.6,19.09c1.75,0,3.36,0.95,3.14,3.31c-0.26,2.8-1.77,4.36-4.14,4.37h-2.07c-0.3,0-0.44,0.24-0.52,0.74
		l-0.4,2.55c-0.06,0.38-0.26,0.57-0.55,0.57h-1.93c-0.31,0-0.41-0.2-0.35-0.64l1.59-10.21c0.08-0.5,0.27-0.69,0.61-0.69H35.6
		L35.6,19.09z M32.46,24.55l1.57,0c0.98-0.04,1.63-0.72,1.7-1.94c0.04-0.76-0.47-1.3-1.29-1.3l-1.48,0.01L32.46,24.55L32.46,24.55z
		 M43.98,29.84c0.18-0.16,0.36-0.24,0.33-0.05l-0.06,0.47c-0.03,0.25,0.07,0.38,0.3,0.38h1.71c0.29,0,0.43-0.12,0.5-0.56l1.06-6.62
		c0.05-0.33-0.03-0.5-0.28-0.5h-1.88c-0.17,0-0.25,0.1-0.3,0.35l-0.07,0.41c-0.04,0.21-0.13,0.25-0.22,0.04
		c-0.32-0.76-1.13-1.1-2.28-1.07c-2.64,0.05-4.42,2.06-4.61,4.63c-0.15,1.99,1.28,3.55,3.16,3.55
		C42.68,30.87,43.29,30.46,43.98,29.84L43.98,29.84z M42.55,28.82c-1.14,0-1.93-0.91-1.76-2.02c0.17-1.11,1.23-2.02,2.36-2.02
		c1.14,0,1.93,0.91,1.76,2.02C44.75,27.92,43.68,28.82,42.55,28.82L42.55,28.82z M51.16,22.94h-1.73c-0.36,0-0.5,0.26-0.39,0.6
		l2.16,6.31l-2.12,3c-0.18,0.25-0.04,0.48,0.21,0.48h1.95c0.29,0,0.43-0.07,0.58-0.28l6.63-9.51c0.2-0.29,0.11-0.6-0.23-0.6l-1.85,0
		c-0.32,0-0.44,0.13-0.63,0.39l-2.77,4.01l-1.23-4.02C51.68,23.07,51.5,22.94,51.16,22.94z"/>
	<path class="st2" d="M65.35,19.09c1.75,0,3.36,0.95,3.14,3.31c-0.26,2.8-1.77,4.36-4.14,4.37h-2.07c-0.3,0-0.44,0.24-0.52,0.74
		l-0.4,2.55c-0.06,0.38-0.26,0.57-0.55,0.57h-1.93c-0.31,0-0.41-0.2-0.35-0.64l1.59-10.21c0.08-0.5,0.27-0.69,0.61-0.69H65.35
		L65.35,19.09z M62.21,24.55l1.57,0c0.98-0.04,1.63-0.72,1.7-1.94c0.04-0.76-0.47-1.3-1.29-1.3l-1.48,0.01L62.21,24.55L62.21,24.55z
		 M73.73,29.84c0.18-0.16,0.36-0.24,0.33-0.05l-0.06,0.47c-0.03,0.25,0.07,0.38,0.3,0.38H76c0.29,0,0.43-0.12,0.5-0.56l1.06-6.62
		c0.05-0.33-0.03-0.5-0.28-0.5H75.4c-0.17,0-0.25,0.1-0.3,0.35l-0.07,0.41c-0.04,0.21-0.13,0.25-0.22,0.04
		c-0.32-0.76-1.13-1.1-2.28-1.07c-2.64,0.05-4.42,2.06-4.61,4.63c-0.15,1.99,1.28,3.55,3.16,3.55
		C72.43,30.87,73.04,30.46,73.73,29.84L73.73,29.84z M72.29,28.82c-1.14,0-1.93-0.91-1.76-2.02c0.17-1.11,1.23-2.02,2.36-2.02
		c1.14,0,1.93,0.91,1.76,2.02C74.49,27.92,73.43,28.82,72.29,28.82L72.29,28.82z M80.19,30.66h-1.98c-0.16,0-0.27-0.12-0.24-0.27
		l1.74-11c0.02-0.15,0.17-0.27,0.33-0.27h1.98c0.16,0,0.27,0.12,0.24,0.27l-1.74,11C80.5,30.54,80.35,30.66,80.19,30.66z"/>
	<path class="st3" d="M9.89,15h5.18c1.46,0,3.19,0.05,4.35,1.07c0.77,0.68,1.18,1.77,1.09,2.94c-0.32,3.96-2.68,6.17-5.86,6.17H12.1
		c-0.43,0-0.72,0.29-0.85,1.07l-0.71,4.54c-0.05,0.29-0.17,0.47-0.41,0.49H6.94c-0.35,0-0.48-0.27-0.39-0.86l2.3-14.55
		C8.94,15.28,9.26,15,9.89,15z"/>
	<path class="st4" d="M11.32,25.79l0.9-5.73c0.08-0.5,0.35-0.74,0.9-0.74h5.18c0.86,0,1.55,0.13,2.09,0.38
		c-0.52,3.52-2.8,5.48-5.78,5.48h-2.56C11.73,25.18,11.48,25.35,11.32,25.79z"/>
</g>
<g>
	<path class="st5" d="M131.35,31.22c-2.77,2.05-6.79,3.13-10.25,3.13c-4.85,0-9.22-1.79-12.52-4.78c-0.26-0.23-0.03-0.55,0.28-0.37
		c3.57,2.07,7.97,3.32,12.53,3.32c3.07,0,6.45-0.64,9.56-1.96C131.41,30.38,131.8,30.88,131.35,31.22L131.35,31.22z"/>
	<path class="st5" d="M132.5,29.9c-0.35-0.45-2.34-0.22-3.24-0.11c-0.27,0.03-0.31-0.2-0.07-0.38c1.59-1.11,4.19-0.79,4.49-0.42
		c0.3,0.38-0.08,2.98-1.57,4.23c-0.23,0.19-0.45,0.09-0.34-0.16C132.1,32.23,132.85,30.36,132.5,29.9L132.5,29.9z"/>
	<path class="st6" d="M129.32,21.55v-1.08c0-0.17,0.13-0.27,0.27-0.27l4.85,0c0.16,0,0.28,0.11,0.28,0.27v0.93
		c0,0.16-0.13,0.36-0.37,0.68l-2.51,3.59c0.93-0.02,1.92,0.12,2.77,0.59c0.19,0.11,0.24,0.27,0.26,0.42v1.16
		c0,0.16-0.17,0.34-0.36,0.25c-1.49-0.78-3.48-0.87-5.13,0.01c-0.17,0.09-0.35-0.09-0.35-0.25v-1.1c0-0.18,0-0.48,0.18-0.74
		l2.91-4.18l-2.54,0C129.45,21.82,129.33,21.71,129.32,21.55L129.32,21.55z"/>
	<path class="st6" d="M111.62,28.31h-1.48c-0.14-0.01-0.25-0.11-0.26-0.25l0-7.58c0-0.15,0.13-0.27,0.28-0.27l1.37,0
		c0.14,0.01,0.26,0.12,0.27,0.25v0.99h0.03c0.36-0.96,1.03-1.4,1.94-1.4c0.92,0,1.5,0.45,1.92,1.4c0.36-0.96,1.17-1.4,2.04-1.4
		c0.62,0,1.3,0.26,1.71,0.83c0.47,0.64,0.37,1.56,0.37,2.38l0,4.78c0,0.15-0.13,0.27-0.28,0.27h-1.47
		c-0.15-0.01-0.26-0.13-0.26-0.27l0-4.02c0-0.32,0.03-1.12-0.04-1.42c-0.11-0.51-0.44-0.65-0.87-0.65c-0.36,0-0.73,0.24-0.88,0.62
		c-0.15,0.38-0.14,1.02-0.14,1.45v4.02c0,0.15-0.13,0.27-0.28,0.27h-1.47c-0.15-0.01-0.27-0.13-0.27-0.27l0-4.02
		c0-0.84,0.14-2.09-0.91-2.09c-1.06,0-1.02,1.21-1.02,2.09l0,4.02C111.91,28.19,111.78,28.31,111.62,28.31L111.62,28.31z"/>
	<path class="st6" d="M138.92,21.6c-1.09,0-1.16,1.48-1.16,2.41c0,0.92-0.01,2.9,1.14,2.9c1.14,0,1.2-1.59,1.2-2.57
		c0-0.64-0.03-1.4-0.22-2.01C139.72,21.81,139.39,21.6,138.92,21.6L138.92,21.6z M138.91,20.05c2.19,0,3.38,1.88,3.38,4.27
		c0,2.31-1.31,4.15-3.38,4.15c-2.15,0-3.32-1.88-3.32-4.23C135.59,21.89,136.77,20.05,138.91,20.05L138.91,20.05z"/>
	<path class="st6" d="M145.13,28.31h-1.47c-0.15-0.01-0.26-0.13-0.26-0.27l0-7.58c0.01-0.14,0.14-0.25,0.28-0.25l1.37,0
		c0.13,0.01,0.24,0.09,0.26,0.21v1.16h0.03c0.41-1.04,0.99-1.53,2.01-1.53c0.66,0,1.31,0.24,1.72,0.89
		c0.39,0.61,0.39,1.63,0.39,2.36v4.77c-0.02,0.13-0.14,0.24-0.28,0.24h-1.48c-0.14-0.01-0.25-0.11-0.26-0.24v-4.11
		c0-0.83,0.1-2.04-0.92-2.04c-0.36,0-0.69,0.24-0.85,0.61c-0.21,0.46-0.23,0.92-0.23,1.44v4.08
		C145.41,28.19,145.29,28.31,145.13,28.31L145.13,28.31z"/>
	<path class="st6" d="M126.94,28.29c-0.1,0.09-0.24,0.09-0.35,0.03c-0.49-0.41-0.58-0.6-0.85-0.98c-0.81,0.83-1.38,1.07-2.43,1.07
		c-1.24,0-2.21-0.77-2.21-2.3c0-1.2,0.65-2.01,1.57-2.41c0.8-0.35,1.92-0.42,2.78-0.51V23c0-0.35,0.03-0.77-0.18-1.07
		c-0.18-0.27-0.52-0.38-0.83-0.38c-0.56,0-1.06,0.29-1.19,0.89c-0.03,0.13-0.12,0.26-0.26,0.27l-1.43-0.16
		c-0.12-0.03-0.26-0.12-0.22-0.31c0.32-1.71,1.85-2.25,3.24-2.26h0.11c0.71,0.01,1.62,0.2,2.17,0.73c0.72,0.67,0.65,1.57,0.65,2.54
		v2.3c0,0.69,0.29,1,0.56,1.37c0.09,0.13,0.12,0.29,0,0.39C127.78,27.57,127.24,28.03,126.94,28.29L126.94,28.29L126.94,28.29z
		 M125.46,24.69c0,0.58,0.01,1.05-0.28,1.57c-0.23,0.42-0.61,0.67-1.02,0.67c-0.57,0-0.9-0.43-0.9-1.07c0-1.26,1.13-1.49,2.2-1.49
		V24.69L125.46,24.69z"/>
	<path class="st6" d="M107.59,28.29c-0.1,0.09-0.24,0.09-0.35,0.03c-0.49-0.41-0.58-0.6-0.85-0.98c-0.81,0.83-1.38,1.07-2.43,1.07
		c-1.24,0-2.21-0.77-2.21-2.3c0-1.2,0.65-2.01,1.57-2.41c0.8-0.35,1.92-0.42,2.78-0.51V23c0-0.35,0.03-0.77-0.18-1.07
		c-0.18-0.27-0.53-0.38-0.83-0.38c-0.56,0-1.06,0.29-1.19,0.89c-0.03,0.13-0.12,0.26-0.26,0.27l-1.43-0.16
		c-0.12-0.03-0.26-0.12-0.22-0.31c0.32-1.71,1.85-2.25,3.24-2.26h0.11c0.71,0.01,1.62,0.2,2.17,0.73c0.72,0.67,0.65,1.57,0.65,2.54
		v2.3c0,0.69,0.29,1,0.56,1.37c0.09,0.13,0.12,0.29,0,0.39C108.42,27.57,107.89,28.03,107.59,28.29L107.59,28.29L107.59,28.29z
		 M106.1,24.69c0,0.58,0.01,1.05-0.28,1.57c-0.23,0.42-0.61,0.67-1.02,0.67c-0.57,0-0.9-0.43-0.9-1.07c0-1.26,1.13-1.49,2.2-1.49
		V24.69L106.1,24.69z"/>
	<path class="st6" d="M169.64,31.03c0-0.19,0-0.36,0-0.56c0-0.16,0.08-0.27,0.24-0.26c0.31,0.04,0.75,0.09,1.05,0.02
		c0.4-0.08,0.69-0.37,0.87-0.76c0.24-0.55,0.4-1,0.5-1.29l-3.07-7.61c-0.05-0.13-0.07-0.37,0.19-0.37h1.07
		c0.21,0,0.29,0.13,0.33,0.26l2.23,6.18l2.13-6.18c0.04-0.13,0.13-0.26,0.33-0.26h1.01c0.26,0,0.24,0.24,0.19,0.37l-3.05,7.85
		c-0.39,1.04-0.92,2.71-2.1,3c-0.59,0.15-1.34,0.1-1.78-0.09C169.68,31.28,169.64,31.13,169.64,31.03L169.64,31.03z"/>
	<path class="st6" d="M168.2,27.85c0,0.14-0.12,0.26-0.26,0.26h-0.76c-0.16,0-0.28-0.12-0.3-0.26l-0.08-0.52
		c-0.35,0.29-0.78,0.55-1.24,0.73c-0.89,0.35-1.92,0.4-2.79-0.13c-0.63-0.39-0.96-1.14-0.96-1.92c0-0.6,0.19-1.2,0.6-1.63
		c0.55-0.59,1.35-0.88,2.31-0.88c0.58,0,1.41,0.07,2.02,0.27v-1.04c0-1.05-0.44-1.51-1.61-1.51c-0.89,0-1.58,0.14-2.53,0.43
		c-0.15,0.01-0.24-0.11-0.24-0.25V20.8c0-0.14,0.12-0.28,0.25-0.32c0.68-0.3,1.64-0.48,2.67-0.52c1.34,0,2.92,0.3,2.92,2.36V27.85
		L168.2,27.85z M166.75,26.33v-1.56c-0.51-0.14-1.35-0.2-1.67-0.2c-0.51,0-1.08,0.12-1.37,0.44c-0.22,0.23-0.32,0.57-0.32,0.89
		c0,0.42,0.14,0.83,0.48,1.04c0.39,0.27,1,0.23,1.57,0.07C165.98,26.85,166.49,26.58,166.75,26.33L166.75,26.33z"/>
	<path class="st6" d="M157.04,21.24c1.68,0,2.14,1.32,2.14,2.83c0.01,1.02-0.18,1.93-0.71,2.45c-0.4,0.39-0.84,0.5-1.5,0.5
		c-0.59,0-1.37-0.31-1.95-0.74v-4.33C155.63,21.49,156.4,21.24,157.04,21.24L157.04,21.24z M154.76,31.3h-1.01
		c-0.14,0-0.26-0.12-0.26-0.26c0-3.52,0-7.04,0-10.57c0-0.14,0.12-0.26,0.26-0.26h0.78c0.16,0,0.27,0.12,0.3,0.26l0.08,0.55
		c0.73-0.65,1.66-1.06,2.56-1.06c2.5,0,3.32,2.06,3.32,4.2c0,2.29-1.26,4.13-3.38,4.13c-0.9,0-1.73-0.33-2.37-0.9v3.65
		C155.02,31.19,154.9,31.3,154.76,31.3L154.76,31.3z"/>
</g>
<g>
	<path class="st7" d="M333.57,15.08c-4.62,0-7.86,2.46-7.89,5.97c-0.03,2.6,2.32,4.05,4.09,4.92c1.82,0.88,2.43,1.45,2.43,2.24
		c-0.02,1.21-1.46,1.76-2.8,1.76c-1.87,0-2.86-0.27-4.39-0.95l-0.61-0.29l-0.65,4.05c1.09,0.5,3.11,0.94,5.2,0.96
		c4.9,0,8.09-2.43,8.13-6.17c0.02-2.06-1.23-3.62-3.92-4.91c-1.63-0.84-2.63-1.39-2.62-2.24c0-0.75,0.84-1.55,2.68-1.55
		c1.53-0.03,2.63,0.33,3.49,0.69l0.42,0.21l0.64-3.92C336.83,15.48,335.37,15.08,333.57,15.08L333.57,15.08z M319.07,15.4
		l-2.92,18.08h4.67l2.92-18.08L319.07,15.4L319.07,15.4z M312.23,15.42l-4.57,12.32l-0.49-2.5c-1.14-3.07-3.6-6.29-6.47-7.6
		l4.18,15.82l4.94,0l7.35-18.04L312.23,15.42L312.23,15.42z M346.12,15.42c-1.12,0-1.96,0.32-2.45,1.5l-6.93,16.57h4.9
		c0,0,0.8-2.23,0.98-2.72c0.54,0,5.3,0.01,5.98,0.01c0.14,0.63,0.57,2.71,0.57,2.71h4.34l-3.78-18.07L346.12,15.42L346.12,15.42z
		 M346.45,20.29l0.31,1.56c0,0,0.9,4.31,1.08,5.22h-3.88c0.39-1.04,1.86-5.05,1.86-5.05C345.8,22.06,346.21,20.97,346.45,20.29
		L346.45,20.29z"/>
	<path class="st8" d="M303.42,15.41h-7.53l-0.04,0.31c5.85,1.5,9.72,5.17,11.33,9.52l-1.64-8.31
		C305.25,15.79,304.43,15.45,303.42,15.41"/>
</g>
<g>
	<g>
		<g>
			<path class="st9" d="M423.97,24.01c0,8.24-6.68,14.92-14.92,14.92c-8.24,0-14.92-6.68-14.92-14.92s6.68-14.92,14.92-14.92
				C417.29,9.09,423.97,15.77,423.97,24.01z"/>
			<g>
				<path class="st10" d="M429.08,9.09c-3.86,0-7.37,1.46-10.02,3.86c-0.54,0.49-1.04,1.02-1.51,1.58h3.01
					c0.41,0.5,0.79,1.03,1.14,1.58h-5.29c-0.32,0.51-0.6,1.03-0.86,1.58h7.01c0.24,0.51,0.45,1.04,0.63,1.58h-8.27
					c-0.17,0.51-0.32,1.04-0.43,1.58h9.14c0.22,1.02,0.34,2.08,0.34,3.16c0,1.66-0.27,3.25-0.77,4.74h-8.27
					c0.18,0.54,0.39,1.07,0.63,1.58h7.01c-0.26,0.55-0.54,1.07-0.86,1.58h-5.29c0.34,0.55,0.73,1.08,1.14,1.58h3.01
					c-0.46,0.56-0.97,1.09-1.51,1.58c2.65,2.4,6.16,3.86,10.02,3.86c8.24,0,14.92-6.68,14.92-14.92
					C444,15.77,437.32,9.09,429.08,9.09z"/>
			</g>
		</g>
		<path class="st10" d="M442.01,32.33c0-0.27,0.22-0.48,0.48-0.48s0.48,0.22,0.48,0.48c0,0.27-0.22,0.48-0.48,0.48
			S442.01,32.59,442.01,32.33z M442.49,32.69c0.2,0,0.37-0.16,0.37-0.37c0-0.2-0.16-0.37-0.37-0.37c-0.2,0-0.37,0.16-0.37,0.37
			C442.13,32.53,442.29,32.69,442.49,32.69z M442.43,32.54h-0.1v-0.42h0.18c0.04,0,0.08,0,0.11,0.02c0.03,0.02,0.05,0.06,0.05,0.11
			c0,0.05-0.03,0.09-0.07,0.11l0.08,0.19h-0.11l-0.06-0.17h-0.07V32.54z M442.43,32.3h0.05c0.02,0,0.04,0,0.06-0.01
			c0.02-0.01,0.03-0.03,0.03-0.05c0-0.02-0.01-0.04-0.02-0.04c-0.02-0.01-0.04-0.01-0.06-0.01h-0.05V32.3z"/>
	</g>
	<g>
		<g>
			<path class="st11" d="M405.57,25.64c-0.17-0.02-0.24-0.03-0.36-0.03c-0.92,0-1.38,0.32-1.38,0.94c0,0.38,0.23,0.63,0.58,0.63
				C405.06,27.18,405.54,26.55,405.57,25.64z M406.74,28.38c-0.22,0-1.34,0-1.34,0l0.03-0.64c-0.41,0.5-0.96,0.74-1.7,0.74
				c-0.88,0-1.48-0.69-1.48-1.68c0-1.5,1.05-2.37,2.84-2.37c0.18,0,0.42,0.02,0.66,0.05c0.05-0.2,0.06-0.29,0.06-0.4
				c0-0.41-0.28-0.56-1.04-0.56c-0.79-0.01-1.45,0.19-1.71,0.28c0.02-0.1,0.22-1.38,0.22-1.38c0.81-0.24,1.34-0.33,1.94-0.33
				c1.39,0,2.13,0.62,2.13,1.8c0,0.32-0.05,0.71-0.13,1.22C407.09,26.01,406.79,27.92,406.74,28.38z"/>
			<polygon class="st11" points="401.58,28.38 399.96,28.38 400.89,22.57 398.81,28.38 397.71,28.38 397.57,22.6 396.6,28.38 
				395.08,28.38 396.35,20.82 398.68,20.82 398.82,25.05 400.24,20.82 402.83,20.82 			"/>
			<path class="st11" d="M431.08,25.64c-0.17-0.02-0.24-0.03-0.36-0.03c-0.92,0-1.38,0.32-1.38,0.94c0,0.38,0.23,0.63,0.58,0.63
				C430.58,27.18,431.05,26.55,431.08,25.64z M432.26,28.38c-0.22,0-1.34,0-1.34,0l0.03-0.64c-0.41,0.5-0.96,0.74-1.7,0.74
				c-0.88,0-1.48-0.69-1.48-1.68c0-1.5,1.05-2.37,2.84-2.37c0.18,0,0.42,0.02,0.66,0.05c0.05-0.2,0.06-0.29,0.06-0.4
				c0-0.41-0.28-0.56-1.04-0.56c-0.79-0.01-1.45,0.19-1.72,0.28c0.02-0.1,0.23-1.38,0.23-1.38c0.81-0.24,1.34-0.33,1.94-0.33
				c1.39,0,2.13,0.62,2.13,1.8c0,0.32-0.05,0.71-0.13,1.22C432.6,26.01,432.3,27.92,432.26,28.38z"/>
			<path class="st11" d="M413.94,28.29c-0.44,0.14-0.79,0.2-1.16,0.2c-0.83,0-1.28-0.48-1.28-1.35c-0.01-0.27,0.12-0.99,0.22-1.64
				c0.09-0.57,0.7-4.2,0.7-4.2h1.61l-0.19,0.93h0.97l-0.22,1.48h-0.98c-0.19,1.17-0.45,2.63-0.46,2.82c0,0.32,0.17,0.46,0.55,0.46
				c0.18,0,0.33-0.02,0.44-0.06L413.94,28.29z"/>
			<path class="st11" d="M418.88,28.24c-0.55,0.17-1.09,0.25-1.65,0.25c-1.8,0-2.74-0.94-2.74-2.75c0-2.1,1.19-3.65,2.82-3.65
				c1.33,0,2.18,0.87,2.18,2.23c0,0.45-0.06,0.89-0.2,1.51h-3.21c-0.11,0.89,0.46,1.26,1.4,1.26c0.58,0,1.1-0.12,1.67-0.39
				L418.88,28.24z M417.97,24.59c0.01-0.13,0.17-1.1-0.75-1.1c-0.51,0-0.88,0.39-1.03,1.1H417.97z"/>
			<path class="st11" d="M407.72,24.18c0,0.78,0.38,1.31,1.23,1.72c0.66,0.31,0.76,0.4,0.76,0.68c0,0.38-0.29,0.56-0.93,0.56
				c-0.48,0-0.93-0.08-1.45-0.24c0,0-0.21,1.36-0.22,1.42c0.37,0.08,0.7,0.15,1.69,0.18c1.71,0,2.5-0.65,2.5-2.06
				c0-0.85-0.33-1.34-1.14-1.72c-0.68-0.31-0.76-0.38-0.76-0.67c0-0.33,0.27-0.5,0.79-0.5c0.32,0,0.75,0.03,1.16,0.09l0.23-1.43
				c-0.42-0.07-1.06-0.12-1.43-0.12C408.34,22.09,407.71,23.04,407.72,24.18z"/>
			<path class="st11" d="M426.76,22.26c0.45,0,0.87,0.12,1.45,0.41l0.27-1.64c-0.24-0.09-1.07-0.64-1.78-0.64
				c-1.08,0-2,0.54-2.64,1.43c-0.94-0.31-1.33,0.32-1.8,0.94l-0.42,0.1c0.03-0.21,0.06-0.41,0.05-0.62h-1.49
				c-0.2,1.91-0.56,3.83-0.84,5.74l-0.07,0.41h1.62c0.27-1.76,0.42-2.88,0.51-3.64l0.61-0.34c0.09-0.34,0.38-0.45,0.95-0.44
				c-0.07,0.4-0.11,0.82-0.11,1.26c0,2.01,1.09,3.27,2.83,3.27c0.45,0,0.83-0.06,1.43-0.22l0.28-1.72
				c-0.54,0.26-0.98,0.39-1.38,0.39c-0.94,0-1.51-0.7-1.51-1.84C424.7,23.42,425.55,22.26,426.76,22.26z"/>
			<path class="st11" d="M440.47,20.82L440.11,23c-0.44-0.58-0.92-1-1.55-1c-0.82,0-1.56,0.62-2.05,1.53
				c-0.68-0.14-1.38-0.38-1.38-0.38l0,0.01c0.05-0.51,0.08-0.82,0.07-0.93h-1.49c-0.2,1.91-0.56,3.83-0.84,5.74l-0.07,0.41h1.62
				c0.22-1.42,0.39-2.6,0.51-3.54c0.55-0.5,0.83-0.94,1.39-0.91c-0.25,0.6-0.39,1.29-0.39,2c0,1.54,0.78,2.55,1.96,2.55
				c0.59,0,1.05-0.2,1.49-0.68l-0.08,0.57h1.53l1.23-7.57H440.47z M438.44,26.96c-0.55,0-0.83-0.41-0.83-1.21
				c0-1.21,0.52-2.07,1.26-2.07c0.56,0,0.86,0.42,0.86,1.21C439.73,26.11,439.2,26.96,438.44,26.96z"/>
		</g>
		<g>
			<polygon class="st12" points="402.04,27.94 400.42,27.94 401.35,22.12 399.28,27.94 398.18,27.94 398.04,22.15 397.06,27.94 
				395.55,27.94 396.82,20.37 399.14,20.37 399.21,25.05 400.78,20.37 403.3,20.37 			"/>
			<path class="st12" d="M406.03,25.19c-0.17-0.02-0.24-0.03-0.36-0.03c-0.92,0-1.38,0.31-1.38,0.94c0,0.38,0.23,0.63,0.58,0.63
				C405.53,26.73,406,26.1,406.03,25.19z M407.21,27.94c-0.22,0-1.34,0-1.34,0l0.03-0.64c-0.41,0.5-0.96,0.74-1.7,0.74
				c-0.88,0-1.48-0.69-1.48-1.68c0-1.5,1.05-2.37,2.84-2.37c0.18,0,0.42,0.02,0.66,0.05c0.05-0.2,0.06-0.29,0.06-0.4
				c0-0.41-0.28-0.56-1.04-0.56c-0.79-0.01-1.45,0.19-1.71,0.28c0.02-0.1,0.22-1.38,0.22-1.38c0.81-0.24,1.34-0.33,1.94-0.33
				c1.39,0,2.13,0.63,2.13,1.8c0,0.32-0.05,0.71-0.13,1.22C407.55,25.56,407.25,27.47,407.21,27.94z"/>
			<path class="st12" d="M428.93,20.57l-0.27,1.64c-0.58-0.29-1-0.41-1.45-0.41c-1.21,0-2.06,1.17-2.06,2.84
				c0,1.15,0.57,1.84,1.51,1.84c0.4,0,0.84-0.12,1.38-0.39l-0.28,1.72c-0.6,0.16-0.98,0.22-1.43,0.22c-1.74,0-2.83-1.25-2.83-3.27
				c0-2.71,1.5-4.6,3.65-4.6C427.86,20.18,428.7,20.48,428.93,20.57z"/>
			<path class="st12" d="M431.55,25.19c-0.17-0.02-0.24-0.03-0.36-0.03c-0.92,0-1.38,0.31-1.38,0.94c0,0.38,0.23,0.63,0.58,0.63
				C431.04,26.73,431.52,26.1,431.55,25.19z M432.73,27.94c-0.22,0-1.34,0-1.34,0l0.03-0.64c-0.41,0.5-0.96,0.74-1.7,0.74
				c-0.88,0-1.48-0.69-1.48-1.68c0-1.5,1.05-2.37,2.84-2.37c0.18,0,0.42,0.02,0.66,0.05c0.05-0.2,0.06-0.29,0.06-0.4
				c0-0.41-0.28-0.56-1.04-0.56c-0.79-0.01-1.45,0.19-1.71,0.28c0.02-0.1,0.22-1.38,0.22-1.38c0.81-0.24,1.34-0.33,1.94-0.33
				c1.39,0,2.13,0.63,2.13,1.8c0,0.32-0.05,0.71-0.13,1.22C433.07,25.56,432.77,27.47,432.73,27.94z"/>
			<path class="st12" d="M414.41,27.84c-0.44,0.14-0.79,0.2-1.16,0.2c-0.83,0-1.28-0.48-1.28-1.35c-0.01-0.27,0.12-0.99,0.22-1.64
				c0.09-0.58,0.7-4.2,0.7-4.2h1.61l-0.19,0.93h0.83l-0.22,1.48h-0.83c-0.19,1.17-0.45,2.63-0.46,2.82c0,0.32,0.17,0.46,0.55,0.46
				c0.18,0,0.33-0.02,0.44-0.06L414.41,27.84z"/>
			<path class="st12" d="M419.35,27.79c-0.55,0.17-1.09,0.25-1.65,0.25c-1.8,0-2.74-0.94-2.74-2.75c0-2.1,1.19-3.65,2.82-3.65
				c1.33,0,2.18,0.87,2.18,2.23c0,0.45-0.06,0.89-0.2,1.51h-3.21c-0.11,0.89,0.46,1.27,1.4,1.27c0.58,0,1.1-0.12,1.67-0.39
				L419.35,27.79z M418.44,24.14c0.01-0.13,0.17-1.1-0.75-1.1c-0.51,0-0.88,0.39-1.03,1.1H418.44z"/>
			<path class="st12" d="M408.18,23.73c0,0.78,0.38,1.31,1.23,1.72c0.66,0.31,0.76,0.4,0.76,0.68c0,0.38-0.29,0.56-0.93,0.56
				c-0.48,0-0.93-0.08-1.45-0.24c0,0-0.21,1.36-0.22,1.42c0.37,0.08,0.7,0.15,1.69,0.18c1.71,0,2.5-0.65,2.5-2.06
				c0-0.85-0.33-1.34-1.14-1.71c-0.68-0.31-0.76-0.38-0.76-0.67c0-0.33,0.27-0.5,0.79-0.5c0.32,0,0.75,0.04,1.16,0.09l0.23-1.43
				c-0.42-0.07-1.06-0.12-1.43-0.12C408.8,21.64,408.18,22.59,408.18,23.73z"/>
			<path class="st12" d="M441.3,27.94h-1.53l0.08-0.57c-0.44,0.47-0.9,0.68-1.49,0.68c-1.18,0-1.96-1.01-1.96-2.55
				c0-2.05,1.21-3.77,2.64-3.77c0.63,0,1.1,0.26,1.55,0.84l0.36-2.19h1.6L441.3,27.94z M438.91,26.51c0.75,0,1.28-0.85,1.28-2.07
				c0-0.78-0.3-1.21-0.86-1.21c-0.73,0-1.26,0.86-1.26,2.07C438.08,26.11,438.36,26.51,438.91,26.51z"/>
			<path class="st12" d="M434.19,21.78c-0.2,1.9-0.56,3.83-0.84,5.74l-0.07,0.41h1.62c0.58-3.76,0.72-4.5,1.63-4.41
				c0.14-0.77,0.41-1.44,0.61-1.79c-0.68-0.14-1.06,0.24-1.55,0.97c0.04-0.32,0.11-0.62,0.1-0.93H434.19z"/>
			<path class="st12" d="M420.85,21.78c-0.2,1.9-0.56,3.83-0.85,5.74l-0.07,0.41h1.62c0.58-3.76,0.72-4.5,1.63-4.41
				c0.15-0.77,0.42-1.44,0.62-1.79c-0.68-0.14-1.06,0.24-1.55,0.97c0.04-0.32,0.11-0.62,0.1-0.93H420.85z"/>
			<g>
				<path class="st12" d="M442.01,27.45c0-0.27,0.22-0.48,0.48-0.48c0.27,0,0.48,0.22,0.48,0.48c0,0.27-0.22,0.48-0.48,0.48
					C442.23,27.94,442.01,27.72,442.01,27.45z M442.49,27.82c0.2,0,0.37-0.16,0.37-0.37c0-0.2-0.16-0.37-0.37-0.37
					c-0.2,0-0.37,0.16-0.37,0.37C442.13,27.66,442.29,27.82,442.49,27.82z M442.43,27.66h-0.1v-0.42h0.18c0.04,0,0.08,0,0.11,0.02
					c0.04,0.02,0.05,0.06,0.05,0.11c0,0.05-0.03,0.09-0.07,0.11l0.08,0.19h-0.11l-0.06-0.17h-0.07V27.66z M442.43,27.43h0.05
					c0.02,0,0.04,0,0.06-0.01c0.02-0.01,0.02-0.03,0.02-0.05c0-0.02-0.01-0.03-0.02-0.04c-0.02-0.01-0.04-0.01-0.06-0.01h-0.05
					V27.43z"/>
			</g>
		</g>
	</g>
</g>
<g>
	<path d="M203.9,31.93l-3.78-14.82h2.31l2.68,10.97l2.59-10.97h2.27l-3.79,14.82H203.9z"/>
	<path d="M209.47,26.41c0-1.05,0.18-2.01,0.54-2.88s0.84-1.51,1.42-1.94c0.59-0.43,1.25-0.65,1.98-0.65c1.23,0,2.2,0.56,2.9,1.67
		c0.7,1.11,1.05,2.41,1.05,3.89c0,1.11-0.18,2.11-0.55,3s-0.85,1.56-1.44,2.01c-0.59,0.45-1.25,0.67-1.96,0.67
		c-1.14,0-2.08-0.5-2.83-1.5S209.47,28.26,209.47,26.41z M211.55,26.56c0,1.09,0.19,1.91,0.56,2.47c0.37,0.56,0.82,0.84,1.34,0.84
		c0.51,0,0.95-0.28,1.31-0.84s0.55-1.39,0.55-2.48c0-1.07-0.19-1.88-0.56-2.44c-0.37-0.56-0.81-0.84-1.33-0.84
		c-0.51,0-0.95,0.28-1.32,0.84C211.73,24.66,211.55,25.48,211.55,26.56z"/>
	<path d="M220.91,31.93h-2.03V21.19h1.88v1.53c0.32-0.71,0.61-1.19,0.87-1.42s0.55-0.35,0.88-0.35c0.46,0,0.91,0.18,1.33,0.54
		l-0.63,2.48c-0.33-0.31-0.65-0.46-0.95-0.46c-0.28,0-0.53,0.12-0.74,0.36c-0.21,0.24-0.37,0.67-0.46,1.3
		c-0.09,0.63-0.14,1.78-0.14,3.46V31.93z"/>
	<path d="M224.63,31.93V17.11h2.03v7.85l2.37-3.77h2.5l-2.62,3.93l2.8,6.81h-2.18l-1.94-4.83l-0.93,1.39v3.44H224.63z"/>
	<path d="M234.42,24.46l-1.84-0.46c0.22-1.08,0.59-1.87,1.1-2.34c0.51-0.47,1.25-0.71,2.21-0.71c0.86,0,1.51,0.14,1.96,0.42
		c0.45,0.28,0.77,0.65,0.97,1.13s0.29,1.34,0.29,2.59l-0.02,3.32c0,0.93,0.03,1.62,0.1,2.08s0.18,0.94,0.36,1.45h-2l-0.26-1.17
		c-0.35,0.47-0.72,0.83-1.11,1.07c-0.39,0.24-0.82,0.36-1.26,0.36c-0.74,0-1.35-0.29-1.83-0.87c-0.47-0.58-0.71-1.34-0.71-2.3
		c0-0.61,0.1-1.14,0.29-1.59s0.47-0.81,0.82-1.08s0.91-0.51,1.69-0.72c0.94-0.25,1.59-0.48,1.96-0.7c0-0.6-0.04-0.99-0.11-1.17
		c-0.07-0.19-0.21-0.34-0.4-0.46s-0.47-0.18-0.83-0.18c-0.36,0-0.65,0.09-0.86,0.28C234.72,23.58,234.55,23.94,234.42,24.46z
		 M237.13,26.77c-0.26,0.12-0.66,0.26-1.2,0.43c-0.63,0.19-1.04,0.4-1.23,0.63c-0.19,0.23-0.29,0.53-0.29,0.89
		c0,0.41,0.11,0.76,0.32,1.04c0.21,0.28,0.48,0.42,0.8,0.42c0.29,0,0.57-0.11,0.85-0.34c0.28-0.23,0.48-0.5,0.58-0.81
		s0.16-0.88,0.16-1.69V26.77z"/>
	<path d="M240.41,28.87l2.03-0.43c0.18,1.13,0.72,1.69,1.63,1.69c0.49,0,0.85-0.11,1.09-0.32c0.24-0.22,0.36-0.5,0.36-0.84
		c0-0.24-0.05-0.42-0.16-0.56c-0.11-0.13-0.33-0.25-0.66-0.35c-1.66-0.51-2.72-0.99-3.17-1.45c-0.56-0.57-0.84-1.36-0.84-2.36
		s0.28-1.8,0.83-2.4s1.35-0.9,2.4-0.9c1,0,1.76,0.22,2.29,0.67s0.89,1.17,1.1,2.17l-1.91,0.5c-0.17-0.86-0.65-1.29-1.44-1.29
		c-0.5,0-0.85,0.08-1.06,0.25s-0.32,0.38-0.32,0.64c0,0.24,0.1,0.43,0.29,0.59c0.19,0.16,0.79,0.41,1.8,0.73
		c1.13,0.37,1.9,0.81,2.3,1.33c0.4,0.52,0.6,1.21,0.6,2.07c0,1.04-0.31,1.89-0.93,2.57s-1.47,1.01-2.56,1.01
		c-0.99,0-1.8-0.28-2.43-0.84S240.61,29.95,240.41,28.87z"/>
	<path d="M248.62,28.87l2.03-0.43c0.18,1.13,0.72,1.69,1.63,1.69c0.49,0,0.85-0.11,1.09-0.32c0.24-0.22,0.36-0.5,0.36-0.84
		c0-0.24-0.05-0.42-0.16-0.56c-0.11-0.13-0.33-0.25-0.66-0.35c-1.66-0.51-2.72-0.99-3.17-1.45c-0.56-0.57-0.84-1.36-0.84-2.36
		s0.28-1.8,0.83-2.4s1.35-0.9,2.4-0.9c1,0,1.76,0.22,2.29,0.67s0.89,1.17,1.1,2.17l-1.91,0.5c-0.17-0.86-0.65-1.29-1.44-1.29
		c-0.5,0-0.85,0.08-1.06,0.25s-0.32,0.38-0.32,0.64c0,0.24,0.1,0.43,0.29,0.59c0.19,0.16,0.79,0.41,1.8,0.73
		c1.13,0.37,1.9,0.81,2.3,1.33c0.4,0.52,0.6,1.21,0.6,2.07c0,1.04-0.31,1.89-0.93,2.57s-1.47,1.01-2.56,1.01
		c-0.99,0-1.8-0.28-2.43-0.84S248.82,29.95,248.62,28.87z"/>
	<path d="M261.99,28.52L264,29c-0.27,1.08-0.69,1.88-1.26,2.4c-0.57,0.52-1.26,0.78-2.08,0.78c-1.13,0-2.01-0.44-2.62-1.31
		c-0.73-1.01-1.09-2.43-1.09-4.25c0-1.8,0.37-3.23,1.1-4.31c0.62-0.91,1.42-1.37,2.41-1.37c1.1,0,1.95,0.47,2.58,1.4
		c0.71,1.07,1.07,2.64,1.07,4.72l-0.01,0.32h-5.07c0.01,0.85,0.18,1.51,0.5,1.98s0.71,0.7,1.16,0.7
		C261.33,30.06,261.77,29.54,261.99,28.52z M262.09,25.64c-0.02-0.84-0.17-1.47-0.47-1.89s-0.64-0.63-1.05-0.63
		c-0.43,0-0.79,0.22-1.08,0.66c-0.3,0.45-0.45,1.07-0.44,1.87H262.09z"/>
</g>
</svg>
