<svg xmlns="http://www.w3.org/2000/svg" viewBox="0 0 76.81 20.46"><defs><style>.cls-1{fill-rule:evenodd;}</style></defs><title>Varlık 3</title><g id="katman_2" data-name="katman 2"><g id="katman_1-2" data-name="katman 1"><path class="cls-1" d="M9.83,0c2.51,0,4.82,1.36,4.5,4.75C14,8.77,11.79,11,8.38,11h-3c-.43,0-.63.35-.75,1.07l-.57,3.66c-.09.55-.37.82-.79.82H.53c-.44,0-.6-.28-.5-.91L2.32,1c.11-.72.39-1,.88-1H9.83ZM5.32,7.84H7.57c1.41,0,2.35-1,2.44-2.79A1.7,1.7,0,0,0,8.16,3.19H6L5.32,7.84Zm16.53,7.6c.25-.23.51-.35.47-.07l-.09.68c-.05.35.09.54.42.54h2.46c.41,0,.62-.17.72-.81l1.52-9.51c.08-.48,0-.71-.4-.71h-2.7c-.24,0-.36.14-.43.51l-.1.59c0,.31-.19.36-.32,0-.46-1.09-1.63-1.57-3.27-1.54-3.79.08-6.35,3-6.62,6.65A4.57,4.57,0,0,0,18,16.92a4.92,4.92,0,0,0,3.81-1.48ZM19.8,14a2.47,2.47,0,0,1-2.53-2.9,3.53,3.53,0,0,1,3.4-2.9,2.46,2.46,0,0,1,2.53,2.9A3.56,3.56,0,0,1,19.8,14ZM32.17,5.53H29.68c-.51,0-.72.38-.56.86l3.1,9.07-3,4.31c-.25.36-.06.69.3.69h2.8a.86.86,0,0,0,.83-.41L42.62,6.39c.29-.42.15-.86-.33-.86H39.64a1,1,0,0,0-.9.56l-4,5.76L33,6.08A.75.75,0,0,0,32.17,5.53Z"/><path class="cls-1" d="M52.53,0C55,0,57.35,1.36,57,4.75c-.38,4-2.54,6.26-6,6.27h-3c-.43,0-.63.35-.75,1.07l-.57,3.66c-.09.55-.37.82-.79.82H43.23c-.44,0-.6-.28-.5-.91L45,1c.11-.72.39-1,.88-1h6.63ZM48,7.84h2.25c1.41,0,2.35-1,2.44-2.79a1.7,1.7,0,0,0-1.85-1.86H48.74L48,7.84Zm16.54,7.6c.25-.23.51-.35.47-.07l-.09.68c0,.35.09.54.42.54h2.46c.41,0,.62-.17.72-.81l1.52-9.51c.08-.48,0-.71-.4-.71H67c-.24,0-.36.14-.43.51l-.1.59c-.05.31-.19.36-.32,0-.46-1.09-1.63-1.57-3.27-1.54-3.79.08-6.35,3-6.62,6.65a4.57,4.57,0,0,0,4.53,5.1,4.94,4.94,0,0,0,3.81-1.48ZM62.5,14A2.47,2.47,0,0,1,60,11.08a3.53,3.53,0,0,1,3.4-2.9,2.47,2.47,0,0,1,2.53,2.9A3.55,3.55,0,0,1,62.5,14Zm11.34,2.63H71a.34.34,0,0,1-.35-.39L73.15.42A.48.48,0,0,1,73.62,0h2.84a.34.34,0,0,1,.35.39l-2.5,15.8A.48.48,0,0,1,73.84,16.61Z"/></g></g></svg>