<svg xmlns="http://www.w3.org/2000/svg" viewBox="0 0 108.23 15.01"><title>Varlık 6</title><g id="katman_2" data-name="katman 2"><g id="katman_1-2" data-name="katman 1"><path d="M8.21,14.74,5.54,9.62A6.53,6.53,0,0,0,4,10.39a2,2,0,0,0-.74.95A4.59,4.59,0,0,0,3,12.82v1.92H0V0H5.62A5.68,5.68,0,0,1,9.48,1.2a4.22,4.22,0,0,1,1.38,3.37A4.42,4.42,0,0,1,10.24,7,4.59,4.59,0,0,1,8.31,8.59l3.24,6.15Zm-3-7.94.63-.21a4,4,0,0,0,1.53-.84,1.65,1.65,0,0,0,.47-1.22,1.52,1.52,0,0,0-.59-1.3,2.82,2.82,0,0,0-1.7-.44H3v5A8.08,8.08,0,0,1,5.22,6.8Z"/><path d="M23.7,4.55V14.74H20.92v-1a4,4,0,0,1-3,1.2,5.22,5.22,0,0,1-4.58-2.63,5.38,5.38,0,0,1,0-5.34,5.22,5.22,0,0,1,4.58-2.63,4,4,0,0,1,3,1.2v-1H23.7Zm-3.57,7a2.58,2.58,0,0,0,0-3.72,2.8,2.8,0,0,0-3.86,0,2.58,2.58,0,0,0,0,3.72,2.8,2.8,0,0,0,3.86,0Z"/><path d="M30.1,11.46a2.86,2.86,0,0,0,2,.59v2.69h-.42a5.62,5.62,0,0,1-2.85-.67,4.4,4.4,0,0,1-1.76-1.82,5.55,5.55,0,0,1-.59-2.56V1.27h2.86v1.6a2.27,2.27,0,0,0,.76,1.75A2.86,2.86,0,0,0,32,5.34V8.08a3.49,3.49,0,0,1-2.67-1V9.55A2.31,2.31,0,0,0,30.1,11.46Z"/><path d="M44.08,10.28c-1.36,0-2.67.1-3.92.24a22.5,22.5,0,0,0-3.24.6,2.5,2.5,0,0,0,1,1,2.9,2.9,0,0,0,1.44.35,3.67,3.67,0,0,0,1.46-.3,3.93,3.93,0,0,0,1.25-.84l1.49,2a5.22,5.22,0,0,1-1.87,1.29,6.1,6.1,0,0,1-2.34.45,5.67,5.67,0,0,1-2.82-.7,5.2,5.2,0,0,1-2-1.94,5.35,5.35,0,0,1-.72-2.75A5.45,5.45,0,0,1,34.5,6.9,5.08,5.08,0,0,1,36.42,5a5.33,5.33,0,0,1,2.72-.7,5,5,0,0,1,2.58.66,4.58,4.58,0,0,1,1.76,1.86,5.85,5.85,0,0,1,.63,2.76A5.4,5.4,0,0,1,44.08,10.28ZM37.45,7.45a2.69,2.69,0,0,0-.82,1.61,19.67,19.67,0,0,1,4.59-.72,2,2,0,0,0-.78-1.09,2.51,2.51,0,0,0-3,.2Z"/><path d="M54.7,4.92a4,4,0,0,1,1.54,1.63,4.92,4.92,0,0,1,.54,2.31v5.87H53.92V9.38a2.47,2.47,0,0,0-.64-1.81,2.27,2.27,0,0,0-1.67-.65,2.24,2.24,0,0,0-1.67.65,2.47,2.47,0,0,0-.64,1.81v5.35H46.44V4.54h2.78V5.63A4,4,0,0,1,52.36,4.3,4.71,4.71,0,0,1,54.7,4.92Z"/><path d="M63.82,10.59l-1.28,1.28v2.86H59.68V0h2.86V8.59l3.9-4H70L65.79,8.76l4.44,6H66.88Z"/><path d="M81.78,4.55V14.74H79v-1A4,4,0,0,1,76,15a5.19,5.19,0,0,1-4.57-2.63,5.23,5.23,0,0,1-.71-2.67A5.13,5.13,0,0,1,71.42,7a5.28,5.28,0,0,1,1.91-1.93A5.21,5.21,0,0,1,76,4.35a4,4,0,0,1,3,1.2v-1h2.78Zm-3.57,7a2.58,2.58,0,0,0,0-3.72,2.8,2.8,0,0,0-3.86,0,2.58,2.58,0,0,0,0,3.72,2.8,2.8,0,0,0,3.86,0Z"/><path d="M94.73,4.55V14.74H92v-1A3.72,3.72,0,0,1,89,15a4.59,4.59,0,0,1-2.28-.56,3.9,3.9,0,0,1-1.56-1.56,4.73,4.73,0,0,1-.56-2.33v-6h2.86V10a2.42,2.42,0,0,0,.6,1.72,2.35,2.35,0,0,0,3.22,0,2.42,2.42,0,0,0,.6-1.72V4.54h2.87Z"/><path d="M101.34,3.29a2.34,2.34,0,0,0-.76,1.92V6.3a3.49,3.49,0,0,1,2.67-1V8a2.75,2.75,0,0,0-1.93.72,2.28,2.28,0,0,0-.75,1.75v4.25H97.71V5.07a5.58,5.58,0,0,1,.59-2.56A4.4,4.4,0,0,1,100.06.69,5.62,5.62,0,0,1,102.91,0h.42V2.71A2.79,2.79,0,0,0,101.34,3.29Z"/><path d="M105,14.34a1.9,1.9,0,0,1,0-2.71,1.92,1.92,0,0,1,2.71,2.71,1.9,1.9,0,0,1-2.71,0Z"/></g></g></svg>