<svg xmlns="http://www.w3.org/2000/svg" viewBox="0 0 106.03 18.59"><title>Varlık 5</title><g id="katman_2" data-name="katman 2"><g id="katman_1-2" data-name="katman 1"><path d="M8.21,14.74,5.54,9.62A6.53,6.53,0,0,0,4,10.39a2,2,0,0,0-.74.95A4.59,4.59,0,0,0,3,12.82v1.92H0V0H5.62A5.68,5.68,0,0,1,9.48,1.2a4.22,4.22,0,0,1,1.38,3.37A4.42,4.42,0,0,1,10.24,7,4.59,4.59,0,0,1,8.31,8.59l3.24,6.15Zm-3-7.94.63-.21a4,4,0,0,0,1.53-.84,1.65,1.65,0,0,0,.47-1.22,1.52,1.52,0,0,0-.59-1.3,2.82,2.82,0,0,0-1.7-.44H3v5A8.08,8.08,0,0,1,5.23,6.8Z"/><path d="M22.89,10.28c-1.36,0-2.67.1-3.92.24a22.5,22.5,0,0,0-3.24.6,2.5,2.5,0,0,0,1,1,2.9,2.9,0,0,0,1.44.35,3.67,3.67,0,0,0,1.46-.3,3.93,3.93,0,0,0,1.25-.84l1.49,2a5.22,5.22,0,0,1-1.87,1.29,6.1,6.1,0,0,1-2.34.45,5.67,5.67,0,0,1-2.82-.7,5.2,5.2,0,0,1-2-1.94,5.35,5.35,0,0,1-.72-2.75,5.45,5.45,0,0,1,.69-2.72A5.08,5.08,0,0,1,15.23,5,5.33,5.33,0,0,1,18,4.27a5,5,0,0,1,2.58.66,4.58,4.58,0,0,1,1.76,1.86,5.85,5.85,0,0,1,.63,2.76A4.14,4.14,0,0,1,22.89,10.28ZM16.26,7.45a2.69,2.69,0,0,0-.82,1.61A19.67,19.67,0,0,1,20,8.34a2,2,0,0,0-.78-1.09,2.51,2.51,0,0,0-3,.2Z"/><path d="M27.14,14.29a5.53,5.53,0,0,1-2-2,5.22,5.22,0,0,1,0-5.36,5.53,5.53,0,0,1,2-2,5.38,5.38,0,0,1,2.76-.73A5.9,5.9,0,0,1,32.79,5a4.09,4.09,0,0,1,1.86,2L32.14,8.26a2.46,2.46,0,0,0-.93-.91A2.68,2.68,0,0,0,29.88,7,2.49,2.49,0,0,0,28,7.77a2.55,2.55,0,0,0-.75,1.87,2.58,2.58,0,0,0,2.63,2.63,2.61,2.61,0,0,0,1.33-.34,2.54,2.54,0,0,0,.93-.91l2.51,1.28a4.14,4.14,0,0,1-1.86,2A5.93,5.93,0,0,1,29.9,15,5.36,5.36,0,0,1,27.14,14.29Z"/><path d="M45,4.9a4,4,0,0,1,1.58,1.61,4.9,4.9,0,0,1,.56,2.36v5.87H44.26V9.39a2.52,2.52,0,0,0-.63-1.79,2.44,2.44,0,0,0-3.36,0,2.52,2.52,0,0,0-.63,1.79v5.35H36.78V0h2.86V5.51a4,4,0,0,1,3-1.2A4.71,4.71,0,0,1,45,4.9Z"/><path d="M58.31,4.92a4,4,0,0,1,1.54,1.63,4.92,4.92,0,0,1,.54,2.31v5.87H57.53V9.38a2.47,2.47,0,0,0-.64-1.81,2.27,2.27,0,0,0-1.67-.65,2.24,2.24,0,0,0-1.67.65,2.47,2.47,0,0,0-.64,1.81v5.35H50.05V4.54h2.78V5.63A4,4,0,0,1,56,4.3,4.71,4.71,0,0,1,58.31,4.92Z"/><path d="M73.16,4.55V14.74H70.38v-1a3.72,3.72,0,0,1-3,1.24,4.59,4.59,0,0,1-2.28-.56,3.9,3.9,0,0,1-1.56-1.56A4.73,4.73,0,0,1,63,10.52v-6h2.86V10a2.42,2.42,0,0,0,.6,1.72,2.35,2.35,0,0,0,3.22,0,2.42,2.42,0,0,0,.6-1.72V4.54h2.87Z"/><path d="M84.51,4.92a4,4,0,0,1,1.54,1.63,4.92,4.92,0,0,1,.54,2.31v5.87H83.73V9.38a2.47,2.47,0,0,0-.64-1.81,2.27,2.27,0,0,0-1.67-.65,2.24,2.24,0,0,0-1.67.65,2.47,2.47,0,0,0-.64,1.81v5.35H76.25V4.54H79V5.63A4,4,0,0,1,82.17,4.3,4.66,4.66,0,0,1,84.51,4.92Z"/><path d="M99.93,5.79a6.06,6.06,0,0,1-1.12,1.83,8.64,8.64,0,0,1,.55,3.22,10.91,10.91,0,0,1-.63,3.71,6.23,6.23,0,0,1-2.13,2.89,6.3,6.3,0,0,1-3.92,1.15,7.15,7.15,0,0,1-1.89-.21V15.73a6.93,6.93,0,0,0,1.79.21A4.77,4.77,0,0,0,95,15.4a3,3,0,0,0,1.34-1.84,2.74,2.74,0,0,1-1.11.63,4.73,4.73,0,0,1-1.44.21,5.24,5.24,0,0,1-2.59-.65A4.74,4.74,0,0,1,89.33,12a4.9,4.9,0,0,1-.66-2.51A5,5,0,0,1,91.28,5,5.41,5.41,0,0,1,94,4.34a5,5,0,0,1,3.09,1,3.28,3.28,0,0,0,.42-1.73h2.8A5.85,5.85,0,0,1,99.93,5.79ZM95.7,11.15a2.39,2.39,0,0,0,.69-1.74,2.39,2.39,0,0,0-.69-1.74A2.37,2.37,0,0,0,93.93,7a2.42,2.42,0,0,0-1.77.7,2.39,2.39,0,0,0-.69,1.74,2.39,2.39,0,0,0,.69,1.74,2.59,2.59,0,0,0,3.54,0Z"/><path d="M102.76,14.34a1.9,1.9,0,0,1,0-2.71,1.92,1.92,0,0,1,2.71,2.71,1.9,1.9,0,0,1-2.71,0Z"/></g></g></svg>