<svg height="512pt" viewBox="0 -47 512 512" width="512pt" xmlns="http://www.w3.org/2000/svg"><path d="m42 329h50c4.144531 0 7.5-3.359375 7.5-7.5s-3.355469-7.5-7.5-7.5h-50c-4.144531 0-7.5 3.359375-7.5 7.5s3.355469 7.5 7.5 7.5zm0 0"/><path d="m42 299h30c4.144531 0 7.5-3.359375 7.5-7.5s-3.355469-7.5-7.5-7.5h-30c-4.144531 0-7.5 3.359375-7.5 7.5s3.355469 7.5 7.5 7.5zm0 0"/><path d="m80 78v-21c0-4.140625-3.355469-7.5-7.5-7.5s-7.5 3.359375-7.5 7.5v21c0 4.140625 3.355469 7.5 7.5 7.5s7.5-3.359375 7.5-7.5zm0 0"/><path d="m110 78v-21c0-4.140625-3.355469-7.5-7.5-7.5s-7.5 3.359375-7.5 7.5v21c0 4.140625 3.355469 7.5 7.5 7.5s7.5-3.359375 7.5-7.5zm0 0"/><path d="m42.5 85.5c4.144531 0 7.5-3.359375 7.5-7.5v-21c0-4.140625-3.355469-7.5-7.5-7.5s-7.5 3.359375-7.5 7.5v21c0 4.140625 3.355469 7.5 7.5 7.5zm0 0"/><path d="m452 267.710938v-215.210938c0-20.679688-16.820312-37.5-37.5-37.5h-123.679688c-1.214843-8.46875-8.519531-15-17.320312-15h-95c-9.648438 0-17.5 7.851562-17.5 17.5v108c0 12.40625 10.09375 22.5 22.5 22.5h85c12.40625 0 22.5-10.09375 22.5-22.5v-68c0-4.140625-3.355469-7.5-7.5-7.5s-7.5 3.359375-7.5 7.5v68c0 4.136719-3.363281 7.5-7.5 7.5h-85c-4.136719 0-7.5-3.363281-7.5-7.5v-108c0-1.378906 1.121094-2.5 2.5-2.5h95c1.378906 0 2.5 1.121094 2.5 2.5v5c0 1.988281.789062 3.898438 2.195312 5.304688 1.410157 1.40625 3.316407 2.195312 5.304688 2.195312h131c12.40625 0 22.5 10.09375 22.5 22.5v213.523438c-.335938-.003907-.664062-.023438-1-.023438h-86c-41.90625 0-76 34.09375-76 76 0 2.359375.121094 4.691406.335938 7h-236.835938c-12.40625 0-22.5-10.09375-22.5-22.5v-274c0-12.40625 10.09375-22.5 22.5-22.5h96c4.144531 0 7.5-3.359375 7.5-7.5s-3.355469-7.5-7.5-7.5h-96c-20.679688 0-37.5 16.820312-37.5 37.5v274c0 20.679688 16.820312 37.5 37.5 37.5h239.757812c9.460938 31.210938 38.484376 54 72.742188 54h86c41.90625 0 76-34.09375 76-76 0-36.417969-25.753906-66.921875-60-74.289062zm-16 135.289062h-86c-33.636719 0-61-27.363281-61-61s27.363281-61 61-61h86c33.636719 0 61 27.363281 61 61s-27.363281 61-61 61zm0 0"/><path d="m436 301h-85c-4.144531 0-7.5 3.359375-7.5 7.5s3.355469 7.5 7.5 7.5h85c14.335938 0 26 11.664062 26 26s-11.664062 26-26 26h-15v-.472656c0-3.199219-1.59375-6.164063-4.261719-7.925782-2.667969-1.765624-6.019531-2.070312-8.960937-.816406l-24.214844 10.316406c-2.765625 1.175782-4.5625 3.890626-4.5625 6.898438s1.796875 5.722656 4.5625 6.898438l24.214844 10.316406c1.199218.511718 2.464844.761718 3.726562.761718 1.835938 0 3.652344-.53125 5.234375-1.578124 2.667969-1.761719 4.261719-4.726563 4.261719-7.925782v-1.472656h15c22.609375 0 41-18.394531 41-41s-18.394531-41-41-41zm0 0"/><path d="m404.5 93c6.894531 0 12.5-5.605469 12.5-12.5v-20c0-6.894531-5.605469-12.5-12.5-12.5h-65c-6.894531 0-12.5 5.605469-12.5 12.5v20c0 6.894531 5.605469 12.5 12.5 12.5zm-62.5-30h60v15h-60zm0 0"/></svg>