<svg id="Capa_1" enable-background="new 0 0 451.112 451.112" height="512" viewBox="0 0 451.112 451.112" width="512" xmlns="http://www.w3.org/2000/svg"><path d="m354.445 257.778c-25.998 0-49.527 10.431-66.917 27.184l-95.378-47.698c.476-3.882 1.184-7.7 1.184-11.708s-.708-7.825-1.184-11.708l95.378-47.698c17.389 16.752 40.919 27.184 66.917 27.184 53.305 0 96.667-43.361 96.667-96.667s-43.362-96.667-96.667-96.667-96.667 43.361-96.667 96.667c0 4.008.708 7.825 1.184 11.708l-95.378 47.698c-17.389-16.752-40.919-27.184-66.917-27.184-53.305 0-96.667 43.362-96.667 96.667s43.361 96.667 96.667 96.667c25.998 0 49.527-10.431 66.917-27.184l95.378 47.698c-.476 3.882-1.184 7.7-1.184 11.708 0 53.305 43.361 96.667 96.667 96.667s96.667-43.361 96.667-96.667-43.362-96.667-96.667-96.667z"/></svg>