<svg xmlns="http://www.w3.org/2000/svg" viewBox="0 0 67.99 16.02"><title>Varlık 9</title><g id="katman_2" data-name="katman 2"><g id="katman_1-2" data-name="katman 1"><path d="M2.16,15.36A5.88,5.88,0,0,1,0,13.54l2.08-2.1a5.13,5.13,0,0,0,1.31,1.19,3.05,3.05,0,0,0,1.68.48,2.23,2.23,0,0,0,1.54-.53,1.83,1.83,0,0,0,.59-1.42,1.49,1.49,0,0,0-.31-1,2.17,2.17,0,0,0-.82-.58,14.64,14.64,0,0,0-1.51-.5C1.78,8.28.4,6.81.4,4.68A4.64,4.64,0,0,1,1,2.34,4.44,4.44,0,0,1,2.74.63,5.19,5.19,0,0,1,5.32,0,5.2,5.2,0,0,1,8,.68,4.15,4.15,0,0,1,9.75,2.62L7.25,4.19a2.31,2.31,0,0,0-2-1.29A1.67,1.67,0,0,0,4,3.37a1.56,1.56,0,0,0-.47,1.15,1.22,1.22,0,0,0,.57,1.11A8.07,8.07,0,0,0,6,6.38,7.94,7.94,0,0,1,9.2,8.05a3.87,3.87,0,0,1,1.15,3,4.76,4.76,0,0,1-2.61,4.35A5.76,5.76,0,0,1,5,16,6.15,6.15,0,0,1,2.16,15.36Z"/><path d="M15,15.26a5.69,5.69,0,0,1-2.1-2.06,5.51,5.51,0,0,1,0-5.65A5.84,5.84,0,0,1,15,5.49a5.83,5.83,0,0,1,7.9,2.06,5.37,5.37,0,0,1,.77,2.83,5.43,5.43,0,0,1-.77,2.82,5.84,5.84,0,0,1-2.1,2.06,5.91,5.91,0,0,1-5.8,0Zm4.87-2.88a2.75,2.75,0,0,0,.8-2,2.72,2.72,0,0,0-.8-2,2.8,2.8,0,0,0-3.94,0,2.75,2.75,0,0,0-.8,2,2.72,2.72,0,0,0,.8,2,2.8,2.8,0,0,0,3.94,0Z"/><path d="M29.81,3.68a2.47,2.47,0,0,0-.8,2V6.85a3.65,3.65,0,0,1,2.81-1.06V8.67a3,3,0,0,0-2,.75A2.43,2.43,0,0,0,29,11.26v4.48H26V5.55a5.82,5.82,0,0,1,.62-2.69A4.68,4.68,0,0,1,28.46.94a6,6,0,0,1,3-.71h.44V3.07A3,3,0,0,0,29.81,3.68Z"/><path d="M36.32,15.26a5.69,5.69,0,0,1-2.1-2.06,5.51,5.51,0,0,1,0-5.65,5.78,5.78,0,0,1,5-2.82,5.78,5.78,0,0,1,5,2.82A5.37,5.37,0,0,1,45,10.38a5.43,5.43,0,0,1-.77,2.82,5.84,5.84,0,0,1-2.1,2.06,5.91,5.91,0,0,1-5.8,0Zm4.88-2.88a2.75,2.75,0,0,0,.8-2,2.72,2.72,0,0,0-.8-2,2.8,2.8,0,0,0-3.94,0,2.75,2.75,0,0,0-.8,2,2.72,2.72,0,0,0,.8,2,2.8,2.8,0,0,0,3.94,0Z"/><path d="M53.25,4.84V8.07a2.93,2.93,0,0,0-2.12.72,2.74,2.74,0,0,0-.74,2.05v4.9h-3V5H50.3V6.23A3.05,3.05,0,0,1,53.25,4.84Z"/><path d="M59.52,12.28a3,3,0,0,0,2.1.62v2.84h-.44a6,6,0,0,1-3-.71,4.56,4.56,0,0,1-1.85-1.92,5.82,5.82,0,0,1-.62-2.69V1.56h3V3.24a2.4,2.4,0,0,0,.8,1.84,2.91,2.91,0,0,0,2,.75V8.71a3.65,3.65,0,0,1-2.81-1.06v2.61A2.44,2.44,0,0,0,59.52,12.28Z"/><path d="M64.55,15.31a2,2,0,0,1,0-2.85,2,2,0,0,1,2.85,2.85,2,2,0,0,1-2.85,0Z"/></g></g></svg>