<svg xmlns="http://www.w3.org/2000/svg" viewBox="0 0 72.62 23.5"><title>Varlık 8</title><g id="katman_2" data-name="katman 2"><g id="katman_1-2" data-name="katman 1"><path d="M47.51,0c-5.82,0-9.9,3.09-9.94,7.51,0,3.28,2.92,5.1,5.15,6.19s3.06,1.83,3.06,2.82c0,1.53-1.84,2.22-3.52,2.22a11.76,11.76,0,0,1-5.53-1.19L36,17.19l-.82,5.1A17.93,17.93,0,0,0,41.7,23.5c6.17,0,10.19-3.06,10.24-7.78,0-2.6-1.55-4.56-4.94-6.19-2-1.06-3.32-1.76-3.3-2.82s1.06-2,3.37-2a10.22,10.22,0,0,1,4.4.88l.52.26L52.79,1A14.92,14.92,0,0,0,47.51,0ZM29.25.39,25.57,23.16h5.88L35.13.39Zm-8.61,0L14.88,15.94l-.61-3.15C12.84,8.92,9.73,4.87,6.12,3.22l5.26,19.93H17.6L26.86.43Zm42.67,0a2.92,2.92,0,0,0-3.09,1.89L51.49,23.17h6.18s1-2.81,1.24-3.42h7.53c.18.79.72,3.41.72,3.41h5.46L67.86.42Zm.42,6.14.39,2s1.13,5.43,1.37,6.57H60.61C61.1,13.78,63,8.73,63,8.73s.48-1.32.78-2.17Z"/><path d="M9.54.4H.06L0,.79c7.37,1.89,12.24,6.52,14.26,12L12.2,2.31A2.46,2.46,0,0,0,9.54.4"/></g></g></svg>