<svg xmlns="http://www.w3.org/2000/svg" viewBox="0 0 101.5 17.53"><title>Varlık 1</title><g id="katman_2" data-name="katman 2"><g id="katman_1-2" data-name="katman 1"><path d="M6.82.2H9.29L6.65,17.34h-4L0,.2H2.72l2.06,14Z"/><path d="M15,1.13a4,4,0,0,1,3-1.13,4,4,0,0,1,3,1.13,4.44,4.44,0,0,1,1,3.18v8.91a4.48,4.48,0,0,1-1,3.18,4,4,0,0,1-3,1.13,4,4,0,0,1-3-1.13,4.48,4.48,0,0,1-1-3.18V4.31A4.4,4.4,0,0,1,15,1.13Zm3,14c.93,0,1.4-.56,1.4-1.69V4.14c0-1.13-.47-1.69-1.4-1.69s-1.4.56-1.4,1.69v9.25C16.66,14.52,17.12,15.08,18.05,15.08Z"/><path d="M33,16.55a12.51,12.51,0,0,1,0-1.32V12.54a2.65,2.65,0,0,0-.42-1.68,1.65,1.65,0,0,0-1.35-.5h-.93v7H27.54V.2H31.6a4.11,4.11,0,0,1,3,1,4.08,4.08,0,0,1,1,3V5.49c0,1.76-.59,2.92-1.76,3.48a2.48,2.48,0,0,1,1.37,1.31,5.63,5.63,0,0,1,.42,2.34v2.64c0,.49,0,.89.05,1.19a2.87,2.87,0,0,0,.24.89H33.17A5.29,5.29,0,0,1,33,16.55ZM30.24,7.91h1.05a1.6,1.6,0,0,0,1.21-.42,2,2,0,0,0,.4-1.4V4.4a2.19,2.19,0,0,0-.33-1.35,1.25,1.25,0,0,0-1-.42h-1.3V7.91Z"/><path d="M43.75,12.07v5.26H41.06V.2h2.69V7.67L47.27.2H50L46.22,7.84,50,17.34H47.19l-2.62-6.83Z"/><path d="M60.87,17.34l-.46-3.11h-3.3l-.47,3.11H54.17L56.91.2h3.94l2.74,17.14ZM60,11.9l-1.3-8.67-1.3,8.67Z"/><path d="M69.16,1.12a4.5,4.5,0,0,1,5.92,0,4.6,4.6,0,0,1,1,3.19v.54H73.53V4.14a2,2,0,0,0-.34-1.29,1.23,1.23,0,0,0-1-.4,1.22,1.22,0,0,0-1,.4,2,2,0,0,0-.34,1.29A3.09,3.09,0,0,0,71.43,6a12.59,12.59,0,0,0,1.73,1.84c.64.59,1.15,1.11,1.54,1.55a6.07,6.07,0,0,1,1,1.63,5.37,5.37,0,0,1,.42,2.18,4.5,4.5,0,0,1-1,3.19,4.58,4.58,0,0,1-6,0,4.52,4.52,0,0,1-1-3.19V12.17h2.54v1.22c0,1.11.47,1.66,1.4,1.66s1.4-.55,1.4-1.66a3.14,3.14,0,0,0-.58-1.89,11.61,11.61,0,0,0-1.73-1.84c-.64-.59-1.15-1.11-1.54-1.55a5.92,5.92,0,0,1-1-1.63,5.37,5.37,0,0,1-.42-2.18A4.65,4.65,0,0,1,69.16,1.12Z"/><path d="M82,1.12a4.5,4.5,0,0,1,5.92,0,4.6,4.6,0,0,1,1,3.19v.54H86.36V4.14A2,2,0,0,0,86,2.85a1.23,1.23,0,0,0-1-.4,1.22,1.22,0,0,0-1,.4,2,2,0,0,0-.34,1.29A3.09,3.09,0,0,0,84.26,6,12.59,12.59,0,0,0,86,7.86c.64.59,1.15,1.11,1.54,1.55a6.07,6.07,0,0,1,1,1.63A5.37,5.37,0,0,1,89,13.22a4.5,4.5,0,0,1-1,3.19,4.58,4.58,0,0,1-6,0,4.52,4.52,0,0,1-1-3.19V12.17h2.54v1.22c0,1.11.47,1.66,1.4,1.66s1.4-.55,1.4-1.66a3.14,3.14,0,0,0-.58-1.89,11.61,11.61,0,0,0-1.73-1.84c-.64-.59-1.15-1.11-1.54-1.55a5.92,5.92,0,0,1-1-1.63A5.37,5.37,0,0,1,81,4.3,4.65,4.65,0,0,1,82,1.12Z"/><path d="M100.55,7.42V9.87h-3.7v5h4.65v2.45H94.16V.2h7.34V2.65H96.85V7.42Z"/></g></g></svg>